<svg width="263" height="500" viewBox="0 0 263 500" fill="none" xmlns="http://www.w3.org/2000/svg">
<rect width="263" height="500" fill="#EDF3F8"/>
<g clip-path="url(#clip0_0_1)">
<rect width="1440" height="3066" transform="translate(-917 -162)" fill="#EDF3F8"/>
<g opacity="0.15">
<circle cx="273" cy="56" r="390" fill="#36536B"/>
<circle cx="273" cy="56" r="390" fill="#36536B"/>
<mask id="mask0_0_1" style="mask-type:luminance" maskUnits="userSpaceOnUse" x="-117" y="-334" width="780" height="780">
<circle cx="273" cy="56" r="390" fill="white"/>
</mask>
<g mask="url(#mask0_0_1)">
</g>
</g>
<g filter="url(#filter0_d_0_1)">
<path fill-rule="evenodd" clip-rule="evenodd" d="M35.776 0.569458H227.009C245.35 0.569458 260.217 14.8048 260.217 32.365V467.635C260.217 485.195 245.35 499.431 227.009 499.431H35.776C17.4357 499.431 2.56787 485.195 2.56787 467.635V32.365C2.56787 14.8048 17.4357 0.569458 35.776 0.569458Z" fill="#213648"/>
</g>
<path opacity="0.595562" fill-rule="evenodd" clip-rule="evenodd" d="M227.749 0H34.9226C25.92 0.548956 17.6174 4.65694 10.0146 12.3239C14.9041 8.0559 23.6249 2.34456 35.1546 2.34456C35.1546 2.34456 219.83 2.34456 227.517 2.34456C239.046 2.34456 247.767 8.0559 252.656 12.3239C245.054 4.65694 236.751 0.548956 227.749 0Z" fill="url(#paint0_linear_0_1)" fill-opacity="0.65"/>
<path opacity="0.75" fill-rule="evenodd" clip-rule="evenodd" d="M254.999 462.671V34.9818C254.999 23.5065 250.782 19.2644 248.266 16.5405C245.75 13.8166 245.643 12.4272 249.258 14.4839C252.873 16.5405 260.103 22.5306 260.103 34.9818V462.671C260.103 475.122 252.873 481.112 249.258 483.169C245.643 485.225 245.75 483.836 248.266 481.112C250.782 478.388 254.999 474.146 254.999 462.671Z" fill="url(#paint1_linear_0_1)"/>
<path opacity="0.75" fill-rule="evenodd" clip-rule="evenodd" d="M7.67196 462.671V34.9818C7.67196 23.5065 11.8894 19.2644 14.4053 16.5405C16.9212 13.8166 17.0283 12.4272 13.4134 14.4839C9.79843 16.5405 2.56798 22.5306 2.56798 34.9818V462.671C2.56798 475.122 9.79843 481.112 13.4134 483.169C17.0283 485.225 16.9212 483.836 14.4053 481.112C11.8894 478.388 7.67196 474.146 7.67196 462.671Z" fill="url(#paint2_linear_0_1)"/>
<path fill-rule="evenodd" clip-rule="evenodd" d="M0 103.557C0 102.452 0.89543 101.557 2 101.557H2.96454C4.06911 101.557 4.96454 102.452 4.96454 103.557V163.907C4.96454 165.012 4.06911 165.907 2.96454 165.907H2C0.89543 165.907 0 165.012 0 163.907V103.557Z" fill="#2E423C"/>
<path fill-rule="evenodd" clip-rule="evenodd" d="M257.535 156.043C257.535 154.939 258.431 154.043 259.535 154.043H260.5C261.605 154.043 262.5 154.939 262.5 156.043V198.993C262.5 200.098 261.605 200.993 260.5 200.993H259.535C258.431 200.993 257.535 200.098 257.535 198.993V156.043Z" fill="#2E423C"/>
<g clip-path="url(#clip1_0_1)">
<path fill-rule="evenodd" clip-rule="evenodd" d="M108.676 12.4445L34.2698 12.4445C23.1653 12.4445 15.0742 20.0078 15.0742 29.8859V452.276C15.0742 465.155 27.5765 476.567 41.7134 476.567H221.046C234.664 476.567 247.686 465.067 247.686 452.276V31.0276C247.686 19.188 238.896 12.5149 228.49 12.4445L152.904 12.4445C152.618 12.4914 147.425 14.6262 145.231 20.0078C143.036 25.3893 138.621 29.6793 133.787 29.6793H128.172C125.874 29.6793 119.824 27.4496 116.76 20.0078C113.697 12.5659 108.963 12.4914 108.676 12.4445Z" fill="white"/>
<mask id="mask1_0_1" style="mask-type:luminance" maskUnits="userSpaceOnUse" x="15" y="12" width="233" height="465">
<path fill-rule="evenodd" clip-rule="evenodd" d="M108.676 12.4445L34.2698 12.4445C23.1653 12.4445 15.0742 20.0078 15.0742 29.8859V452.276C15.0742 465.155 27.5765 476.567 41.7134 476.567H221.046C234.664 476.567 247.686 465.067 247.686 452.276V31.0276C247.686 19.188 238.896 12.5149 228.49 12.4445L152.904 12.4445C152.618 12.4914 147.425 14.6262 145.231 20.0078C143.036 25.3893 138.621 29.6793 133.787 29.6793H128.172C125.874 29.6793 119.824 27.4496 116.76 20.0078C113.697 12.5659 108.963 12.4914 108.676 12.4445Z" fill="white"/>
</mask>
<g mask="url(#mask1_0_1)">
<rect x="15" y="12.4445" width="233" height="465" fill="url(#paint3_linear_0_1)"/>
<path d="M94.504 141V123.672H90.376V121.032C91.6987 121.032 92.7653 120.909 93.576 120.664C94.3973 120.408 95.0107 120.045 95.416 119.576C95.8213 119.096 96.0613 118.525 96.136 117.864H99.24V141H94.504ZM104.496 141V138.696V137.512C104.496 136.339 104.714 135.325 105.152 134.472C105.589 133.608 106.165 132.861 106.88 132.232C107.605 131.592 108.394 131.032 109.248 130.552C110.112 130.072 110.976 129.619 111.84 129.192C112.704 128.765 113.493 128.339 114.208 127.912C114.933 127.475 115.514 126.989 115.952 126.456C116.389 125.923 116.608 125.293 116.608 124.568C116.608 123.64 116.282 122.883 115.632 122.296C114.992 121.709 114.112 121.416 112.992 121.416C111.829 121.416 110.842 121.752 110.032 122.424C109.221 123.096 108.72 124.109 108.528 125.464H104.064C104.085 123.992 104.426 122.659 105.088 121.464C105.76 120.259 106.762 119.304 108.096 118.6C109.429 117.896 111.104 117.544 113.12 117.544C114.848 117.544 116.336 117.837 117.584 118.424C118.842 119.011 119.813 119.827 120.496 120.872C121.178 121.917 121.52 123.139 121.52 124.536C121.52 125.699 121.306 126.701 120.88 127.544C120.453 128.387 119.888 129.107 119.184 129.704C118.48 130.301 117.706 130.824 116.864 131.272C116.021 131.72 115.178 132.136 114.336 132.52C113.504 132.904 112.736 133.299 112.032 133.704C111.328 134.099 110.762 134.547 110.336 135.048C109.909 135.549 109.696 136.152 109.696 136.856V137.064H121.488V141H104.496ZM129.704 124.856V129.864H124.584V124.856H129.704ZM129.704 135.912V140.904H124.584V135.912H129.704ZM143.451 117.864H148.043V131.96H151.611V135.88H148.043V141H143.547L143.563 135.88H132.907V132.04L143.451 117.864ZM137.227 131.96H143.563V123.48L137.227 131.96ZM162.435 141.352C160.995 141.352 159.651 141.075 158.403 140.52C157.155 139.965 156.137 139.187 155.347 138.184C154.558 137.171 154.115 135.987 154.019 134.632H158.467C158.659 135.528 159.086 136.259 159.747 136.824C160.409 137.379 161.241 137.656 162.243 137.656C163.353 137.656 164.323 137.395 165.155 136.872C165.998 136.349 166.627 135.517 167.043 134.376C167.47 133.235 167.619 131.741 167.491 129.896C167.193 130.461 166.777 130.957 166.243 131.384C165.721 131.8 165.107 132.125 164.403 132.36C163.699 132.584 162.915 132.696 162.051 132.696C160.483 132.696 159.091 132.403 157.875 131.816C156.67 131.219 155.721 130.376 155.027 129.288C154.345 128.189 154.003 126.888 154.003 125.384C154.003 123.869 154.366 122.52 155.091 121.336C155.817 120.152 156.83 119.224 158.131 118.552C159.433 117.88 160.958 117.544 162.707 117.544C164.67 117.544 166.361 118.013 167.779 118.952C169.209 119.88 170.302 121.203 171.059 122.92C171.827 124.627 172.211 126.637 172.211 128.952C172.211 131.715 171.817 134.019 171.027 135.864C170.249 137.699 169.129 139.075 167.667 139.992C166.206 140.899 164.462 141.352 162.435 141.352ZM162.851 128.984C163.502 128.984 164.131 128.84 164.739 128.552C165.358 128.253 165.865 127.88 166.259 127.432C166.654 126.984 166.851 126.52 166.851 126.04C166.862 125.005 166.697 124.12 166.355 123.384C166.025 122.637 165.555 122.067 164.947 121.672C164.35 121.277 163.651 121.08 162.851 121.08C162.115 121.08 161.459 121.251 160.883 121.592C160.307 121.933 159.854 122.413 159.523 123.032C159.193 123.651 159.027 124.365 159.027 125.176C159.027 126.381 159.379 127.32 160.083 127.992C160.787 128.653 161.71 128.984 162.851 128.984Z" fill="white"/>
</g>
</g>
<g clip-path="url(#clip2_0_1)">
<g filter="url(#filter1_d_0_1)">
<rect x="22" y="167" width="218" height="87" rx="5" fill="#FBFCFE"/>
</g>
<g clip-path="url(#clip3_0_1)">
<path d="M38.81 193V185.77H41.47C41.9967 185.77 42.4683 185.862 42.885 186.045C43.3017 186.225 43.63 186.492 43.87 186.845C44.1133 187.198 44.235 187.63 44.235 188.14C44.235 188.62 44.1283 189.03 43.915 189.37C43.7017 189.71 43.4017 189.97 43.015 190.15C42.6317 190.33 42.18 190.42 41.66 190.42H40.28V193H38.81ZM40.265 189.29H41.62C41.9867 189.29 42.2867 189.173 42.52 188.94C42.7533 188.703 42.87 188.412 42.87 188.065C42.87 187.705 42.7467 187.42 42.5 187.21C42.2533 186.997 41.9533 186.89 41.6 186.89H40.265V189.29ZM46.5117 193.1C46.1817 193.1 45.8851 193.038 45.6217 192.915C45.3584 192.792 45.1501 192.613 44.9967 192.38C44.8434 192.143 44.7667 191.857 44.7667 191.52C44.7667 190.953 44.9784 190.523 45.4017 190.23C45.8251 189.933 46.4934 189.78 47.4067 189.77L48.0517 189.76V189.45C48.0517 189.213 47.9817 189.032 47.8417 188.905C47.7051 188.775 47.4917 188.712 47.2017 188.715C46.9884 188.718 46.7851 188.768 46.5917 188.865C46.4017 188.962 46.2717 189.13 46.2017 189.37H44.9867C45.0067 188.997 45.1151 188.69 45.3117 188.45C45.5084 188.207 45.7751 188.027 46.1117 187.91C46.4517 187.79 46.8367 187.73 47.2667 187.73C47.7967 187.73 48.2217 187.797 48.5417 187.93C48.8617 188.06 49.0934 188.248 49.2367 188.495C49.3801 188.738 49.4517 189.028 49.4517 189.365V193H48.2317L48.1117 192.11C47.9351 192.483 47.7134 192.742 47.4467 192.885C47.1834 193.028 46.8717 193.1 46.5117 193.1ZM47.0017 192.14C47.1351 192.14 47.2634 192.117 47.3867 192.07C47.5134 192.02 47.6251 191.955 47.7217 191.875C47.8217 191.792 47.9017 191.698 47.9617 191.595C48.0217 191.492 48.0517 191.385 48.0517 191.275V190.51L47.5267 190.52C47.2834 190.523 47.0567 190.553 46.8467 190.61C46.6367 190.663 46.4667 190.752 46.3367 190.875C46.2101 190.998 46.1467 191.165 46.1467 191.375C46.1467 191.615 46.2301 191.803 46.3967 191.94C46.5634 192.073 46.7651 192.14 47.0017 192.14ZM51.3636 194.65C51.0103 194.65 50.7603 194.62 50.6136 194.56C50.4703 194.503 50.3986 194.475 50.3986 194.475V193.545L50.9086 193.565C51.1319 193.578 51.3119 193.567 51.4486 193.53C51.5853 193.497 51.6886 193.452 51.7586 193.395C51.8319 193.338 51.8836 193.278 51.9136 193.215C51.9436 193.155 51.9653 193.107 51.9786 193.07L52.0736 192.785L50.0636 187.83H51.5086L52.7486 191.2L54.0036 187.83H55.4286L53.3336 193.03C53.1536 193.47 52.9636 193.807 52.7636 194.04C52.5636 194.273 52.3469 194.433 52.1136 194.52C51.8836 194.607 51.6336 194.65 51.3636 194.65ZM55.2184 193L57.8084 185.77H59.3484L61.9334 193H60.4784L59.8884 191.325H57.2884L56.6834 193H55.2184ZM57.6134 190.05H59.5384L58.5834 187.18L57.6134 190.05ZM63.019 193V185.77H65.679C66.2057 185.77 66.6773 185.862 67.094 186.045C67.5107 186.225 67.839 186.492 68.079 186.845C68.3223 187.198 68.444 187.63 68.444 188.14C68.444 188.62 68.3373 189.03 68.124 189.37C67.9107 189.71 67.6107 189.97 67.224 190.15C66.8407 190.33 66.389 190.42 65.869 190.42H64.489V193H63.019ZM64.474 189.29H65.829C66.1957 189.29 66.4957 189.173 66.729 188.94C66.9623 188.703 67.079 188.412 67.079 188.065C67.079 187.705 66.9557 187.42 66.709 187.21C66.4623 186.997 66.1623 186.89 65.809 186.89H64.474V189.29ZM69.5424 185.77H70.9974V193H69.5424V185.77Z" fill="#BA4270"/>
<path opacity="0.5" d="M185.619 191.295C185.619 191.678 185.575 192.005 185.489 192.275C185.402 192.545 185.247 192.75 185.024 192.89C184.804 193.03 184.49 193.1 184.084 193.1C183.827 193.1 183.585 193.07 183.359 193.01C183.135 192.95 182.987 192.905 182.914 192.875L182.979 191.99C183.082 192.027 183.2 192.073 183.334 192.13C183.47 192.183 183.639 192.21 183.839 192.21C184.165 192.21 184.389 192.12 184.509 191.94C184.632 191.76 184.694 191.457 184.694 191.03V185.77H185.619V191.295ZM189.05 193.1C188.78 193.097 188.525 193.058 188.285 192.985C188.049 192.908 187.839 192.797 187.655 192.65C187.472 192.503 187.327 192.322 187.22 192.105C187.117 191.885 187.065 191.63 187.065 191.34V187.83H187.99V191.245C187.99 191.582 188.094 191.855 188.3 192.065C188.51 192.275 188.825 192.38 189.245 192.38C189.625 192.38 189.93 192.282 190.16 192.085C190.394 191.885 190.51 191.588 190.51 191.195V187.83H191.43V193H190.695L190.6 192.01C190.537 192.27 190.429 192.48 190.275 192.64C190.125 192.8 189.944 192.918 189.73 192.995C189.52 193.068 189.294 193.103 189.05 193.1ZM194.708 193.1C194.348 193.1 194.013 193.045 193.703 192.935C193.396 192.822 193.141 192.647 192.938 192.41C192.735 192.17 192.606 191.865 192.553 191.495H193.393C193.44 191.698 193.523 191.868 193.643 192.005C193.766 192.138 193.92 192.24 194.103 192.31C194.286 192.377 194.486 192.41 194.703 192.41C195.05 192.41 195.33 192.345 195.543 192.215C195.756 192.085 195.863 191.885 195.863 191.615C195.863 191.425 195.806 191.273 195.693 191.16C195.583 191.043 195.411 190.958 195.178 190.905L194.108 190.64C193.691 190.54 193.358 190.383 193.108 190.17C192.858 189.957 192.733 189.658 192.733 189.275C192.73 188.972 192.801 188.705 192.948 188.475C193.095 188.245 193.315 188.063 193.608 187.93C193.901 187.797 194.266 187.73 194.703 187.73C195.263 187.73 195.715 187.857 196.058 188.11C196.405 188.36 196.585 188.728 196.598 189.215H195.783C195.75 188.968 195.638 188.773 195.448 188.63C195.261 188.483 195.01 188.41 194.693 188.41C194.363 188.41 194.095 188.477 193.888 188.61C193.681 188.74 193.578 188.943 193.578 189.22C193.578 189.403 193.651 189.548 193.798 189.655C193.945 189.758 194.161 189.845 194.448 189.915L195.483 190.175C195.723 190.238 195.92 190.322 196.073 190.425C196.23 190.528 196.353 190.643 196.443 190.77C196.536 190.897 196.601 191.03 196.638 191.17C196.678 191.307 196.698 191.438 196.698 191.565C196.698 191.882 196.618 192.155 196.458 192.385C196.301 192.612 196.075 192.788 195.778 192.915C195.485 193.038 195.128 193.1 194.708 193.1ZM200.5 188.505H199.335V191.72C199.335 191.903 199.353 192.038 199.39 192.125C199.43 192.208 199.495 192.262 199.585 192.285C199.678 192.308 199.805 192.32 199.965 192.32H200.53V192.94C200.466 192.963 200.37 192.983 200.24 193C200.113 193.017 199.955 193.025 199.765 193.025C199.408 193.025 199.131 192.977 198.935 192.88C198.738 192.783 198.6 192.64 198.52 192.45C198.443 192.26 198.405 192.027 198.405 191.75V188.505H197.565V187.83H198.43L198.655 186.325H199.335V187.825H200.5V188.505ZM209.028 185.77H209.953V193H209.128L205.248 187.3V193H204.323V185.77H205.208L209.028 191.39V185.77ZM213.659 193.1C213.182 193.1 212.765 192.998 212.409 192.795C212.052 192.588 211.775 192.287 211.579 191.89C211.382 191.493 211.284 191.008 211.284 190.435C211.284 189.895 211.375 189.422 211.559 189.015C211.742 188.608 212.01 188.293 212.364 188.07C212.72 187.843 213.152 187.73 213.659 187.73C214.135 187.73 214.549 187.835 214.899 188.045C215.252 188.252 215.525 188.557 215.719 188.96C215.912 189.363 216.009 189.855 216.009 190.435C216.009 190.962 215.919 191.425 215.739 191.825C215.562 192.225 215.299 192.538 214.949 192.765C214.602 192.988 214.172 193.1 213.659 193.1ZM213.659 192.37C213.969 192.37 214.23 192.292 214.444 192.135C214.657 191.978 214.819 191.753 214.929 191.46C215.039 191.167 215.094 190.818 215.094 190.415C215.094 190.045 215.045 189.713 214.949 189.42C214.852 189.123 214.697 188.888 214.484 188.715C214.274 188.542 213.999 188.455 213.659 188.455C213.345 188.455 213.08 188.533 212.864 188.69C212.647 188.843 212.482 189.067 212.369 189.36C212.259 189.653 212.204 190.005 212.204 190.415C212.204 190.778 212.254 191.108 212.354 191.405C212.454 191.702 212.61 191.937 212.824 192.11C213.037 192.283 213.315 192.37 213.659 192.37ZM223.833 187.83L222.268 193H221.358L220.178 189.185L219.058 193H218.153L216.558 187.83H217.413L218.598 191.805H218.678L219.843 187.83H220.543L221.753 191.795H221.833L222.968 187.83H223.833Z" fill="#36536B"/>
</g>
<path d="M38.23 202.62V201.77H43.7V202.62H41.495V209H40.565V202.62H38.23ZM44.7025 209V201.57H45.6025V204.59C45.6892 204.447 45.8058 204.313 45.9525 204.19C46.0992 204.063 46.2775 203.962 46.4875 203.885C46.6975 203.805 46.9408 203.765 47.2175 203.765C47.5542 203.765 47.8592 203.828 48.1325 203.955C48.4058 204.078 48.6225 204.255 48.7825 204.485C48.9425 204.715 49.0225 204.988 49.0225 205.305V209H48.0975V205.49C48.0975 205.18 47.9908 204.942 47.7775 204.775C47.5675 204.605 47.2925 204.52 46.9525 204.52C46.7225 204.52 46.5058 204.558 46.3025 204.635C46.0992 204.708 45.9342 204.822 45.8075 204.975C45.6842 205.125 45.6225 205.317 45.6225 205.55V209H44.7025ZM51.1242 206.63C51.1242 206.957 51.1776 207.253 51.2842 207.52C51.3942 207.783 51.5592 207.993 51.7792 208.15C52.0026 208.307 52.2809 208.385 52.6142 208.385C52.9442 208.385 53.2276 208.308 53.4642 208.155C53.7042 208.002 53.8576 207.78 53.9242 207.49H54.7992C54.7359 207.84 54.5959 208.135 54.3792 208.375C54.1626 208.615 53.9009 208.797 53.5942 208.92C53.2876 209.04 52.9676 209.1 52.6342 209.1C52.1509 209.1 51.7259 208.995 51.3592 208.785C50.9926 208.575 50.7059 208.273 50.4992 207.88C50.2926 207.487 50.1892 207.015 50.1892 206.465C50.1892 205.922 50.2826 205.445 50.4692 205.035C50.6559 204.625 50.9259 204.305 51.2792 204.075C51.6359 203.845 52.0642 203.73 52.5642 203.73C53.0509 203.73 53.4626 203.835 53.7992 204.045C54.1359 204.255 54.3909 204.552 54.5642 204.935C54.7409 205.315 54.8292 205.767 54.8292 206.29V206.63H51.1242ZM51.1292 206.005H53.9392C53.9392 205.708 53.8892 205.442 53.7892 205.205C53.6892 204.965 53.5359 204.777 53.3292 204.64C53.1259 204.5 52.8692 204.43 52.5592 204.43C52.2359 204.43 51.9676 204.508 51.7542 204.665C51.5442 204.818 51.3859 205.017 51.2792 205.26C51.1759 205.5 51.1259 205.748 51.1292 206.005ZM58.3451 210.61V203.83H59.2651L59.2751 204.73C59.3351 204.623 59.4117 204.512 59.5051 204.395C59.6017 204.278 59.7184 204.17 59.8551 204.07C59.9951 203.97 60.1567 203.888 60.3401 203.825C60.5267 203.762 60.7384 203.73 60.9751 203.73C61.3884 203.73 61.7517 203.825 62.0651 204.015C62.3817 204.202 62.6284 204.488 62.8051 204.875C62.9817 205.262 63.0701 205.752 63.0701 206.345C63.0701 206.938 62.9834 207.44 62.8101 207.85C62.6401 208.257 62.3934 208.567 62.0701 208.78C61.7467 208.993 61.3567 209.1 60.9001 209.1C60.6701 209.1 60.4651 209.067 60.2851 209C60.1084 208.937 59.9534 208.853 59.8201 208.75C59.6901 208.643 59.5801 208.53 59.4901 208.41C59.4034 208.29 59.3317 208.175 59.2751 208.065V210.61H58.3451ZM60.7251 208.38C61.1517 208.38 61.5001 208.218 61.7701 207.895C62.0401 207.568 62.1751 207.062 62.1751 206.375C62.1751 205.785 62.0517 205.317 61.8051 204.97C61.5584 204.623 61.1984 204.45 60.7251 204.45C60.2451 204.45 59.8817 204.628 59.6351 204.985C59.3884 205.338 59.2651 205.802 59.2651 206.375C59.2651 206.745 59.3201 207.082 59.4301 207.385C59.5401 207.688 59.7034 207.93 59.9201 208.11C60.1367 208.29 60.4051 208.38 60.7251 208.38ZM65.654 209.1C65.3207 209.1 65.0257 209.042 64.769 208.925C64.5123 208.805 64.3107 208.633 64.164 208.41C64.0207 208.187 63.949 207.917 63.949 207.6C63.949 207.027 64.149 206.6 64.549 206.32C64.949 206.04 65.5907 205.89 66.474 205.87L67.399 205.845V205.44C67.399 205.123 67.304 204.873 67.114 204.69C66.924 204.503 66.629 204.41 66.229 204.41C65.9323 204.413 65.6707 204.483 65.444 204.62C65.2207 204.757 65.0757 204.98 65.009 205.29H64.194C64.214 204.953 64.309 204.67 64.479 204.44C64.649 204.207 64.8857 204.03 65.189 203.91C65.4957 203.79 65.8573 203.73 66.274 203.73C66.724 203.73 67.0973 203.793 67.394 203.92C67.694 204.047 67.9173 204.233 68.064 204.48C68.214 204.727 68.289 205.03 68.289 205.39V209H67.499L67.434 208.03C67.234 208.433 66.979 208.713 66.669 208.87C66.3623 209.023 66.024 209.1 65.654 209.1ZM65.934 208.435C66.1073 208.435 66.279 208.403 66.449 208.34C66.6223 208.277 66.7807 208.192 66.924 208.085C67.0673 207.975 67.1807 207.853 67.264 207.72C67.3507 207.583 67.3957 207.443 67.399 207.3V206.415L66.629 206.43C66.2357 206.437 65.9057 206.477 65.639 206.55C65.3757 206.623 65.1773 206.738 65.044 206.895C64.914 207.052 64.849 207.257 64.849 207.51C64.849 207.8 64.949 208.027 65.149 208.19C65.3523 208.353 65.614 208.435 65.934 208.435ZM70.2125 210.65C69.9092 210.65 69.7008 210.628 69.5875 210.585C69.4742 210.542 69.4175 210.52 69.4175 210.52V209.92L69.9425 209.93C70.1358 209.937 70.2958 209.923 70.4225 209.89C70.5492 209.857 70.6508 209.812 70.7275 209.755C70.8042 209.698 70.8625 209.635 70.9025 209.565C70.9458 209.495 70.9808 209.428 71.0075 209.365L71.1875 208.875L69.1675 203.83H70.1025L71.6275 207.82L73.1425 203.83H74.0475L71.8675 209.39C71.7342 209.717 71.5842 209.972 71.4175 210.155C71.2542 210.338 71.0708 210.467 70.8675 210.54C70.6675 210.613 70.4492 210.65 70.2125 210.65ZM75.0345 209V203.83H75.9245V204.58C76.0679 204.353 76.2645 204.155 76.5145 203.985C76.7645 203.815 77.0895 203.73 77.4895 203.73C77.6762 203.73 77.8662 203.762 78.0595 203.825C78.2562 203.888 78.4362 203.983 78.5995 204.11C78.7629 204.237 78.8895 204.392 78.9795 204.575C79.1395 204.322 79.3562 204.118 79.6295 203.965C79.9029 203.808 80.2112 203.73 80.5545 203.73C80.7345 203.73 80.9229 203.758 81.1195 203.815C81.3162 203.868 81.4979 203.965 81.6645 204.105C81.8345 204.242 81.9729 204.433 82.0795 204.68C82.1862 204.923 82.2395 205.237 82.2395 205.62V209H81.3095V205.71C81.3095 205.397 81.2595 205.155 81.1595 204.985C81.0595 204.812 80.9279 204.69 80.7645 204.62C80.6045 204.55 80.4329 204.515 80.2495 204.515C80.0895 204.515 79.9195 204.547 79.7395 204.61C79.5595 204.673 79.4062 204.78 79.2795 204.93C79.1529 205.08 79.0895 205.285 79.0895 205.545V209H78.1695V205.44C78.1695 205.237 78.1145 205.067 78.0045 204.93C77.8979 204.793 77.7629 204.69 77.5995 204.62C77.4395 204.55 77.2795 204.515 77.1195 204.515C76.9429 204.515 76.7645 204.55 76.5845 204.62C76.4079 204.69 76.2579 204.802 76.1345 204.955C76.0145 205.105 75.9545 205.302 75.9545 205.545V209H75.0345ZM84.3469 206.63C84.3469 206.957 84.4002 207.253 84.5069 207.52C84.6169 207.783 84.7819 207.993 85.0019 208.15C85.2252 208.307 85.5035 208.385 85.8369 208.385C86.1669 208.385 86.4502 208.308 86.6869 208.155C86.9269 208.002 87.0802 207.78 87.1469 207.49H88.0219C87.9585 207.84 87.8185 208.135 87.6019 208.375C87.3852 208.615 87.1235 208.797 86.8169 208.92C86.5102 209.04 86.1902 209.1 85.8569 209.1C85.3735 209.1 84.9485 208.995 84.5819 208.785C84.2152 208.575 83.9285 208.273 83.7219 207.88C83.5152 207.487 83.4119 207.015 83.4119 206.465C83.4119 205.922 83.5052 205.445 83.6919 205.035C83.8785 204.625 84.1485 204.305 84.5019 204.075C84.8585 203.845 85.2869 203.73 85.7869 203.73C86.2735 203.73 86.6852 203.835 87.0219 204.045C87.3585 204.255 87.6135 204.552 87.7869 204.935C87.9635 205.315 88.0519 205.767 88.0519 206.29V206.63H84.3469ZM84.3519 206.005H87.1619C87.1619 205.708 87.1119 205.442 87.0119 205.205C86.9119 204.965 86.7585 204.777 86.5519 204.64C86.3485 204.5 86.0919 204.43 85.7819 204.43C85.4585 204.43 85.1902 204.508 84.9769 204.665C84.7669 204.818 84.6085 205.017 84.5019 205.26C84.3985 205.5 84.3485 205.748 84.3519 206.005ZM89.3216 209V203.83H90.2166V204.58C90.3 204.437 90.415 204.302 90.5616 204.175C90.7116 204.048 90.8916 203.947 91.1016 203.87C91.315 203.793 91.56 203.755 91.8366 203.755C92.1633 203.755 92.4633 203.82 92.7366 203.95C93.0133 204.08 93.2333 204.283 93.3966 204.56C93.5633 204.833 93.6466 205.187 93.6466 205.62V209H92.7216V205.71C92.7216 205.307 92.615 205.008 92.4016 204.815C92.1916 204.618 91.9183 204.52 91.5816 204.52C91.3483 204.52 91.13 204.558 90.9266 204.635C90.7233 204.708 90.5583 204.822 90.4316 204.975C90.305 205.125 90.2416 205.315 90.2416 205.545V209H89.3216ZM97.4756 204.505H96.3106V207.72C96.3106 207.903 96.329 208.038 96.3656 208.125C96.4056 208.208 96.4706 208.262 96.5606 208.285C96.654 208.308 96.7806 208.32 96.9406 208.32H97.5056V208.94C97.4423 208.963 97.3456 208.983 97.2156 209C97.089 209.017 96.9306 209.025 96.7406 209.025C96.384 209.025 96.1073 208.977 95.9106 208.88C95.714 208.783 95.5756 208.64 95.4956 208.45C95.419 208.26 95.3806 208.027 95.3806 207.75V204.505H94.5406V203.83H95.4056L95.6306 202.325H96.3106V203.825H97.4756V204.505ZM101.109 209V201.57H102.009V204.59C102.095 204.447 102.212 204.313 102.359 204.19C102.505 204.063 102.684 203.962 102.894 203.885C103.104 203.805 103.347 203.765 103.624 203.765C103.96 203.765 104.265 203.828 104.539 203.955C104.812 204.078 105.029 204.255 105.189 204.485C105.349 204.715 105.429 204.988 105.429 205.305V209H104.504V205.49C104.504 205.18 104.397 204.942 104.184 204.775C103.974 204.605 103.699 204.52 103.359 204.52C103.129 204.52 102.912 204.558 102.709 204.635C102.505 204.708 102.34 204.822 102.214 204.975C102.09 205.125 102.029 205.317 102.029 205.55V209H101.109ZM108.281 209.1C107.948 209.1 107.653 209.042 107.396 208.925C107.139 208.805 106.938 208.633 106.791 208.41C106.648 208.187 106.576 207.917 106.576 207.6C106.576 207.027 106.776 206.6 107.176 206.32C107.576 206.04 108.218 205.89 109.101 205.87L110.026 205.845V205.44C110.026 205.123 109.931 204.873 109.741 204.69C109.551 204.503 109.256 204.41 108.856 204.41C108.559 204.413 108.298 204.483 108.071 204.62C107.848 204.757 107.703 204.98 107.636 205.29H106.821C106.841 204.953 106.936 204.67 107.106 204.44C107.276 204.207 107.513 204.03 107.816 203.91C108.123 203.79 108.484 203.73 108.901 203.73C109.351 203.73 109.724 203.793 110.021 203.92C110.321 204.047 110.544 204.233 110.691 204.48C110.841 204.727 110.916 205.03 110.916 205.39V209H110.126L110.061 208.03C109.861 208.433 109.606 208.713 109.296 208.87C108.989 209.023 108.651 209.1 108.281 209.1ZM108.561 208.435C108.734 208.435 108.906 208.403 109.076 208.34C109.249 208.277 109.408 208.192 109.551 208.085C109.694 207.975 109.808 207.853 109.891 207.72C109.978 207.583 110.023 207.443 110.026 207.3V206.415L109.256 206.43C108.863 206.437 108.533 206.477 108.266 206.55C108.003 206.623 107.804 206.738 107.671 206.895C107.541 207.052 107.476 207.257 107.476 207.51C107.476 207.8 107.576 208.027 107.776 208.19C107.979 208.353 108.241 208.435 108.561 208.435ZM114.252 209.1C113.892 209.1 113.557 209.045 113.247 208.935C112.941 208.822 112.686 208.647 112.482 208.41C112.279 208.17 112.151 207.865 112.097 207.495H112.937C112.984 207.698 113.067 207.868 113.187 208.005C113.311 208.138 113.464 208.24 113.647 208.31C113.831 208.377 114.031 208.41 114.247 208.41C114.594 208.41 114.874 208.345 115.087 208.215C115.301 208.085 115.407 207.885 115.407 207.615C115.407 207.425 115.351 207.273 115.237 207.16C115.127 207.043 114.956 206.958 114.722 206.905L113.652 206.64C113.236 206.54 112.902 206.383 112.652 206.17C112.402 205.957 112.277 205.658 112.277 205.275C112.274 204.972 112.346 204.705 112.492 204.475C112.639 204.245 112.859 204.063 113.152 203.93C113.446 203.797 113.811 203.73 114.247 203.73C114.807 203.73 115.259 203.857 115.602 204.11C115.949 204.36 116.129 204.728 116.142 205.215H115.327C115.294 204.968 115.182 204.773 114.992 204.63C114.806 204.483 114.554 204.41 114.237 204.41C113.907 204.41 113.639 204.477 113.432 204.61C113.226 204.74 113.122 204.943 113.122 205.22C113.122 205.403 113.196 205.548 113.342 205.655C113.489 205.758 113.706 205.845 113.992 205.915L115.027 206.175C115.267 206.238 115.464 206.322 115.617 206.425C115.774 206.528 115.897 206.643 115.987 206.77C116.081 206.897 116.146 207.03 116.182 207.17C116.222 207.307 116.242 207.438 116.242 207.565C116.242 207.882 116.162 208.155 116.002 208.385C115.846 208.612 115.619 208.788 115.322 208.915C115.029 209.038 114.672 209.1 114.252 209.1ZM122.355 209.1C122.052 209.1 121.795 209.06 121.585 208.98C121.378 208.9 121.208 208.798 121.075 208.675C120.942 208.548 120.838 208.42 120.765 208.29C120.692 208.157 120.638 208.04 120.605 207.94L120.505 209H119.8V201.57H120.73V204.65C120.773 204.563 120.838 204.468 120.925 204.365C121.015 204.262 121.13 204.162 121.27 204.065C121.41 203.968 121.575 203.888 121.765 203.825C121.958 203.762 122.178 203.73 122.425 203.73C123.072 203.73 123.585 203.955 123.965 204.405C124.348 204.855 124.54 205.518 124.54 206.395C124.54 206.938 124.458 207.413 124.295 207.82C124.132 208.223 123.888 208.538 123.565 208.765C123.242 208.988 122.838 209.1 122.355 209.1ZM122.19 208.39C122.61 208.39 122.952 208.228 123.215 207.905C123.478 207.578 123.61 207.06 123.61 206.35C123.61 205.747 123.487 205.28 123.24 204.95C122.997 204.617 122.64 204.45 122.17 204.45C121.827 204.45 121.55 204.525 121.34 204.675C121.133 204.822 120.98 205.037 120.88 205.32C120.783 205.603 120.733 205.947 120.73 206.35C120.73 207.073 120.842 207.595 121.065 207.915C121.292 208.232 121.667 208.39 122.19 208.39ZM126.407 206.63C126.407 206.957 126.461 207.253 126.567 207.52C126.677 207.783 126.842 207.993 127.062 208.15C127.286 208.307 127.564 208.385 127.897 208.385C128.227 208.385 128.511 208.308 128.747 208.155C128.987 208.002 129.141 207.78 129.207 207.49H130.082C130.019 207.84 129.879 208.135 129.662 208.375C129.446 208.615 129.184 208.797 128.877 208.92C128.571 209.04 128.251 209.1 127.917 209.1C127.434 209.1 127.009 208.995 126.642 208.785C126.276 208.575 125.989 208.273 125.782 207.88C125.576 207.487 125.472 207.015 125.472 206.465C125.472 205.922 125.566 205.445 125.752 205.035C125.939 204.625 126.209 204.305 126.562 204.075C126.919 203.845 127.347 203.73 127.847 203.73C128.334 203.73 128.746 203.835 129.082 204.045C129.419 204.255 129.674 204.552 129.847 204.935C130.024 205.315 130.112 205.767 130.112 206.29V206.63H126.407ZM126.412 206.005H129.222C129.222 205.708 129.172 205.442 129.072 205.205C128.972 204.965 128.819 204.777 128.612 204.64C128.409 204.5 128.152 204.43 127.842 204.43C127.519 204.43 127.251 204.508 127.037 204.665C126.827 204.818 126.669 205.017 126.562 205.26C126.459 205.5 126.409 205.748 126.412 206.005ZM132.042 206.63C132.042 206.957 132.096 207.253 132.202 207.52C132.312 207.783 132.477 207.993 132.697 208.15C132.921 208.307 133.199 208.385 133.532 208.385C133.862 208.385 134.146 208.308 134.382 208.155C134.622 208.002 134.776 207.78 134.842 207.49H135.717C135.654 207.84 135.514 208.135 135.297 208.375C135.081 208.615 134.819 208.797 134.512 208.92C134.206 209.04 133.886 209.1 133.552 209.1C133.069 209.1 132.644 208.995 132.277 208.785C131.911 208.575 131.624 208.273 131.417 207.88C131.211 207.487 131.107 207.015 131.107 206.465C131.107 205.922 131.201 205.445 131.387 205.035C131.574 204.625 131.844 204.305 132.197 204.075C132.554 203.845 132.982 203.73 133.482 203.73C133.969 203.73 134.381 203.835 134.717 204.045C135.054 204.255 135.309 204.552 135.482 204.935C135.659 205.315 135.747 205.767 135.747 206.29V206.63H132.042ZM132.047 206.005H134.857C134.857 205.708 134.807 205.442 134.707 205.205C134.607 204.965 134.454 204.777 134.247 204.64C134.044 204.5 133.787 204.43 133.477 204.43C133.154 204.43 132.886 204.508 132.672 204.665C132.462 204.818 132.304 205.017 132.197 205.26C132.094 205.5 132.044 205.748 132.047 206.005ZM137.017 209V203.83H137.912V204.58C137.995 204.437 138.11 204.302 138.257 204.175C138.407 204.048 138.587 203.947 138.797 203.87C139.01 203.793 139.255 203.755 139.532 203.755C139.859 203.755 140.159 203.82 140.432 203.95C140.709 204.08 140.929 204.283 141.092 204.56C141.259 204.833 141.342 205.187 141.342 205.62V209H140.417V205.71C140.417 205.307 140.31 205.008 140.097 204.815C139.887 204.618 139.614 204.52 139.277 204.52C139.044 204.52 138.825 204.558 138.622 204.635C138.419 204.708 138.254 204.822 138.127 204.975C138 205.125 137.937 205.315 137.937 205.545V209H137.017ZM145.093 210.61V203.83H146.013L146.023 204.73C146.083 204.623 146.16 204.512 146.253 204.395C146.35 204.278 146.466 204.17 146.603 204.07C146.743 203.97 146.905 203.888 147.088 203.825C147.275 203.762 147.486 203.73 147.723 203.73C148.136 203.73 148.5 203.825 148.813 204.015C149.13 204.202 149.376 204.488 149.553 204.875C149.73 205.262 149.818 205.752 149.818 206.345C149.818 206.938 149.731 207.44 149.558 207.85C149.388 208.257 149.141 208.567 148.818 208.78C148.495 208.993 148.105 209.1 147.648 209.1C147.418 209.1 147.213 209.067 147.033 209C146.856 208.937 146.701 208.853 146.568 208.75C146.438 208.643 146.328 208.53 146.238 208.41C146.151 208.29 146.08 208.175 146.023 208.065V210.61H145.093ZM147.473 208.38C147.9 208.38 148.248 208.218 148.518 207.895C148.788 207.568 148.923 207.062 148.923 206.375C148.923 205.785 148.8 205.317 148.553 204.97C148.306 204.623 147.946 204.45 147.473 204.45C146.993 204.45 146.63 204.628 146.383 204.985C146.136 205.338 146.013 205.802 146.013 206.375C146.013 206.745 146.068 207.082 146.178 207.385C146.288 207.688 146.451 207.93 146.668 208.11C146.885 208.29 147.153 208.38 147.473 208.38ZM151.031 209V203.83H151.911V204.825C151.997 204.578 152.119 204.375 152.276 204.215C152.432 204.052 152.611 203.93 152.811 203.85C153.014 203.77 153.224 203.73 153.441 203.73C153.517 203.73 153.592 203.735 153.666 203.745C153.739 203.755 153.796 203.772 153.836 203.795V204.69C153.786 204.667 153.721 204.652 153.641 204.645C153.564 204.635 153.499 204.63 153.446 204.63C153.239 204.617 153.046 204.63 152.866 204.67C152.686 204.707 152.527 204.772 152.391 204.865C152.254 204.958 152.146 205.082 152.066 205.235C151.989 205.385 151.951 205.568 151.951 205.785V209H151.031ZM156.855 209.1C156.378 209.1 155.962 208.998 155.605 208.795C155.248 208.588 154.972 208.287 154.775 207.89C154.578 207.493 154.48 207.008 154.48 206.435C154.48 205.895 154.572 205.422 154.755 205.015C154.938 204.608 155.207 204.293 155.56 204.07C155.917 203.843 156.348 203.73 156.855 203.73C157.332 203.73 157.745 203.835 158.095 204.045C158.448 204.252 158.722 204.557 158.915 204.96C159.108 205.363 159.205 205.855 159.205 206.435C159.205 206.962 159.115 207.425 158.935 207.825C158.758 208.225 158.495 208.538 158.145 208.765C157.798 208.988 157.368 209.1 156.855 209.1ZM156.855 208.37C157.165 208.37 157.427 208.292 157.64 208.135C157.853 207.978 158.015 207.753 158.125 207.46C158.235 207.167 158.29 206.818 158.29 206.415C158.29 206.045 158.242 205.713 158.145 205.42C158.048 205.123 157.893 204.888 157.68 204.715C157.47 204.542 157.195 204.455 156.855 204.455C156.542 204.455 156.277 204.533 156.06 204.69C155.843 204.843 155.678 205.067 155.565 205.36C155.455 205.653 155.4 206.005 155.4 206.415C155.4 206.778 155.45 207.108 155.55 207.405C155.65 207.702 155.807 207.937 156.02 208.11C156.233 208.283 156.512 208.37 156.855 208.37ZM162.475 203.73C162.845 203.73 163.179 203.802 163.475 203.945C163.772 204.085 164.014 204.285 164.2 204.545C164.39 204.805 164.509 205.112 164.555 205.465H163.735C163.705 205.285 163.635 205.12 163.525 204.97C163.419 204.82 163.277 204.7 163.1 204.61C162.924 204.52 162.717 204.475 162.48 204.475C162.037 204.475 161.677 204.635 161.4 204.955C161.124 205.275 160.985 205.765 160.985 206.425C160.985 207.022 161.112 207.5 161.365 207.86C161.622 208.217 161.999 208.395 162.495 208.395C162.732 208.395 162.937 208.35 163.11 208.26C163.287 208.167 163.429 208.045 163.535 207.895C163.642 207.742 163.71 207.578 163.74 207.405H164.545C164.502 207.752 164.385 208.052 164.195 208.305C164.005 208.558 163.762 208.755 163.465 208.895C163.172 209.032 162.842 209.1 162.475 209.1C162.012 209.1 161.6 208.998 161.24 208.795C160.884 208.592 160.604 208.292 160.4 207.895C160.197 207.498 160.095 207.012 160.095 206.435C160.095 205.895 160.187 205.423 160.37 205.02C160.557 204.613 160.827 204.297 161.18 204.07C161.537 203.843 161.969 203.73 162.475 203.73ZM166.466 206.63C166.466 206.957 166.519 207.253 166.626 207.52C166.736 207.783 166.901 207.993 167.121 208.15C167.344 208.307 167.623 208.385 167.956 208.385C168.286 208.385 168.569 208.308 168.806 208.155C169.046 208.002 169.199 207.78 169.266 207.49H170.141C170.078 207.84 169.938 208.135 169.721 208.375C169.504 208.615 169.243 208.797 168.936 208.92C168.629 209.04 168.309 209.1 167.976 209.1C167.493 209.1 167.068 208.995 166.701 208.785C166.334 208.575 166.048 208.273 165.841 207.88C165.634 207.487 165.531 207.015 165.531 206.465C165.531 205.922 165.624 205.445 165.811 205.035C165.998 204.625 166.268 204.305 166.621 204.075C166.978 203.845 167.406 203.73 167.906 203.73C168.393 203.73 168.804 203.835 169.141 204.045C169.478 204.255 169.733 204.552 169.906 204.935C170.083 205.315 170.171 205.767 170.171 206.29V206.63H166.466ZM166.471 206.005H169.281C169.281 205.708 169.231 205.442 169.131 205.205C169.031 204.965 168.878 204.777 168.671 204.64C168.468 204.5 168.211 204.43 167.901 204.43C167.578 204.43 167.309 204.508 167.096 204.665C166.886 204.818 166.728 205.017 166.621 205.26C166.518 205.5 166.468 205.748 166.471 206.005ZM173.246 209.1C172.886 209.1 172.551 209.045 172.241 208.935C171.935 208.822 171.68 208.647 171.476 208.41C171.273 208.17 171.145 207.865 171.091 207.495H171.931C171.978 207.698 172.061 207.868 172.181 208.005C172.305 208.138 172.458 208.24 172.641 208.31C172.825 208.377 173.025 208.41 173.241 208.41C173.588 208.41 173.868 208.345 174.081 208.215C174.295 208.085 174.401 207.885 174.401 207.615C174.401 207.425 174.345 207.273 174.231 207.16C174.121 207.043 173.95 206.958 173.716 206.905L172.646 206.64C172.23 206.54 171.896 206.383 171.646 206.17C171.396 205.957 171.271 205.658 171.271 205.275C171.268 204.972 171.34 204.705 171.486 204.475C171.633 204.245 171.853 204.063 172.146 203.93C172.44 203.797 172.805 203.73 173.241 203.73C173.801 203.73 174.253 203.857 174.596 204.11C174.943 204.36 175.123 204.728 175.136 205.215H174.321C174.288 204.968 174.176 204.773 173.986 204.63C173.8 204.483 173.548 204.41 173.231 204.41C172.901 204.41 172.633 204.477 172.426 204.61C172.22 204.74 172.116 204.943 172.116 205.22C172.116 205.403 172.19 205.548 172.336 205.655C172.483 205.758 172.7 205.845 172.986 205.915L174.021 206.175C174.261 206.238 174.458 206.322 174.611 206.425C174.768 206.528 174.891 206.643 174.981 206.77C175.075 206.897 175.14 207.03 175.176 207.17C175.216 207.307 175.236 207.438 175.236 207.565C175.236 207.882 175.156 208.155 174.996 208.385C174.84 208.612 174.613 208.788 174.316 208.915C174.023 209.038 173.666 209.1 173.246 209.1ZM178.286 209.1C177.926 209.1 177.591 209.045 177.281 208.935C176.974 208.822 176.719 208.647 176.516 208.41C176.312 208.17 176.184 207.865 176.131 207.495H176.971C177.017 207.698 177.101 207.868 177.221 208.005C177.344 208.138 177.497 208.24 177.681 208.31C177.864 208.377 178.064 208.41 178.281 208.41C178.627 208.41 178.907 208.345 179.121 208.215C179.334 208.085 179.441 207.885 179.441 207.615C179.441 207.425 179.384 207.273 179.271 207.16C179.161 207.043 178.989 206.958 178.756 206.905L177.686 206.64C177.269 206.54 176.936 206.383 176.686 206.17C176.436 205.957 176.311 205.658 176.311 205.275C176.307 204.972 176.379 204.705 176.526 204.475C176.672 204.245 176.892 204.063 177.186 203.93C177.479 203.797 177.844 203.73 178.281 203.73C178.841 203.73 179.292 203.857 179.636 204.11C179.982 204.36 180.162 204.728 180.176 205.215H179.361C179.327 204.968 179.216 204.773 179.026 204.63C178.839 204.483 178.587 204.41 178.271 204.41C177.941 204.41 177.672 204.477 177.466 204.61C177.259 204.74 177.156 204.943 177.156 205.22C177.156 205.403 177.229 205.548 177.376 205.655C177.522 205.758 177.739 205.845 178.026 205.915L179.061 206.175C179.301 206.238 179.497 206.322 179.651 206.425C179.807 206.528 179.931 206.643 180.021 206.77C180.114 206.897 180.179 207.03 180.216 207.17C180.256 207.307 180.276 207.438 180.276 207.565C180.276 207.882 180.196 208.155 180.036 208.385C179.879 208.612 179.652 208.788 179.356 208.915C179.062 209.038 178.706 209.1 178.286 209.1ZM182.228 206.63C182.228 206.957 182.281 207.253 182.388 207.52C182.498 207.783 182.663 207.993 182.883 208.15C183.106 208.307 183.384 208.385 183.718 208.385C184.048 208.385 184.331 208.308 184.568 208.155C184.808 208.002 184.961 207.78 185.028 207.49H185.903C185.839 207.84 185.699 208.135 185.483 208.375C185.266 208.615 185.004 208.797 184.698 208.92C184.391 209.04 184.071 209.1 183.738 209.1C183.254 209.1 182.829 208.995 182.463 208.785C182.096 208.575 181.809 208.273 181.603 207.88C181.396 207.487 181.293 207.015 181.293 206.465C181.293 205.922 181.386 205.445 181.573 205.035C181.759 204.625 182.029 204.305 182.383 204.075C182.739 203.845 183.168 203.73 183.668 203.73C184.154 203.73 184.566 203.835 184.903 204.045C185.239 204.255 185.494 204.552 185.668 204.935C185.844 205.315 185.933 205.767 185.933 206.29V206.63H182.228ZM182.233 206.005H185.043C185.043 205.708 184.993 205.442 184.893 205.205C184.793 204.965 184.639 204.777 184.433 204.64C184.229 204.5 183.973 204.43 183.663 204.43C183.339 204.43 183.071 204.508 182.858 204.665C182.648 204.818 182.489 205.017 182.383 205.26C182.279 205.5 182.229 205.748 182.233 206.005ZM189.068 209.1C188.398 209.1 187.866 208.87 187.473 208.41C187.079 207.95 186.883 207.278 186.883 206.395C186.883 205.858 186.961 205.39 187.118 204.99C187.278 204.59 187.514 204.28 187.828 204.06C188.141 203.84 188.531 203.73 188.998 203.73C189.244 203.73 189.463 203.762 189.653 203.825C189.846 203.888 190.013 203.968 190.153 204.065C190.293 204.162 190.406 204.262 190.493 204.365C190.583 204.468 190.649 204.563 190.693 204.65V201.57H191.623V209H190.918L190.818 207.94C190.784 208.04 190.731 208.157 190.658 208.29C190.584 208.42 190.481 208.548 190.348 208.675C190.214 208.798 190.043 208.9 189.833 208.98C189.626 209.06 189.371 209.1 189.068 209.1ZM189.233 208.39C189.756 208.39 190.129 208.232 190.353 207.915C190.579 207.595 190.693 207.073 190.693 206.35C190.689 205.947 190.638 205.603 190.538 205.32C190.441 205.037 190.288 204.822 190.078 204.675C189.871 204.525 189.596 204.45 189.253 204.45C188.826 204.45 188.479 204.602 188.213 204.905C187.946 205.208 187.813 205.69 187.813 206.35C187.813 206.997 187.933 207.498 188.173 207.855C188.416 208.212 188.769 208.39 189.233 208.39ZM192.935 209V207.82H194.035V209H192.935ZM197.117 202.62V201.77H202.587V202.62H200.382V209H199.452V202.62H197.117ZM203.589 209V201.57H204.489V204.59C204.576 204.447 204.693 204.313 204.839 204.19C204.986 204.063 205.164 203.962 205.374 203.885C205.584 203.805 205.828 203.765 206.104 203.765C206.441 203.765 206.746 203.828 207.019 203.955C207.293 204.078 207.509 204.255 207.669 204.485C207.829 204.715 207.909 204.988 207.909 205.305V209H206.984V205.49C206.984 205.18 206.878 204.942 206.664 204.775C206.454 204.605 206.179 204.52 205.839 204.52C205.609 204.52 205.393 204.558 205.189 204.635C204.986 204.708 204.821 204.822 204.694 204.975C204.571 205.125 204.509 205.317 204.509 205.55V209H203.589ZM210.011 206.63C210.011 206.957 210.064 207.253 210.171 207.52C210.281 207.783 210.446 207.993 210.666 208.15C210.889 208.307 211.168 208.385 211.501 208.385C211.831 208.385 212.114 208.308 212.351 208.155C212.591 208.002 212.744 207.78 212.811 207.49H213.686C213.623 207.84 213.483 208.135 213.266 208.375C213.049 208.615 212.788 208.797 212.481 208.92C212.174 209.04 211.854 209.1 211.521 209.1C211.038 209.1 210.613 208.995 210.246 208.785C209.879 208.575 209.593 208.273 209.386 207.88C209.179 207.487 209.076 207.015 209.076 206.465C209.076 205.922 209.169 205.445 209.356 205.035C209.543 204.625 209.813 204.305 210.166 204.075C210.523 203.845 210.951 203.73 211.451 203.73C211.938 203.73 212.349 203.835 212.686 204.045C213.023 204.255 213.278 204.552 213.451 204.935C213.628 205.315 213.716 205.767 213.716 206.29V206.63H210.011ZM210.016 206.005H212.826C212.826 205.708 212.776 205.442 212.676 205.205C212.576 204.965 212.423 204.777 212.216 204.64C212.013 204.5 211.756 204.43 211.446 204.43C211.123 204.43 210.854 204.508 210.641 204.665C210.431 204.818 210.273 205.017 210.166 205.26C210.063 205.5 210.013 205.748 210.016 206.005ZM41.46 218.505H40.295V221.72C40.295 221.903 40.3133 222.038 40.35 222.125C40.39 222.208 40.455 222.262 40.545 222.285C40.6383 222.308 40.765 222.32 40.925 222.32H41.49V222.94C41.4267 222.963 41.33 222.983 41.2 223C41.0733 223.017 40.915 223.025 40.725 223.025C40.3683 223.025 40.0917 222.977 39.895 222.88C39.6983 222.783 39.56 222.64 39.48 222.45C39.4033 222.26 39.365 222.027 39.365 221.75V218.505H38.525V217.83H39.39L39.615 216.325H40.295V217.825H41.46V218.505ZM44.7067 223.1C44.2301 223.1 43.8134 222.998 43.4567 222.795C43.1001 222.588 42.8234 222.287 42.6267 221.89C42.4301 221.493 42.3317 221.008 42.3317 220.435C42.3317 219.895 42.4234 219.422 42.6067 219.015C42.7901 218.608 43.0584 218.293 43.4117 218.07C43.7684 217.843 44.2001 217.73 44.7067 217.73C45.1834 217.73 45.5967 217.835 45.9467 218.045C46.3001 218.252 46.5734 218.557 46.7667 218.96C46.9601 219.363 47.0567 219.855 47.0567 220.435C47.0567 220.962 46.9667 221.425 46.7867 221.825C46.6101 222.225 46.3467 222.538 45.9967 222.765C45.6501 222.988 45.2201 223.1 44.7067 223.1ZM44.7067 222.37C45.0167 222.37 45.2784 222.292 45.4917 222.135C45.7051 221.978 45.8667 221.753 45.9767 221.46C46.0867 221.167 46.1417 220.818 46.1417 220.415C46.1417 220.045 46.0934 219.713 45.9967 219.42C45.9001 219.123 45.7451 218.888 45.5317 218.715C45.3217 218.542 45.0467 218.455 44.7067 218.455C44.3934 218.455 44.1284 218.533 43.9117 218.69C43.6951 218.843 43.5301 219.067 43.4167 219.36C43.3067 219.653 43.2517 220.005 43.2517 220.415C43.2517 220.778 43.3017 221.108 43.4017 221.405C43.5017 221.702 43.6584 221.937 43.8717 222.11C44.0851 222.283 44.3634 222.37 44.7067 222.37ZM50.7276 218.505H49.5626V221.72C49.5626 221.903 49.5809 222.038 49.6176 222.125C49.6576 222.208 49.7226 222.262 49.8126 222.285C49.9059 222.308 50.0326 222.32 50.1926 222.32H50.7576V222.94C50.6942 222.963 50.5976 222.983 50.4676 223C50.3409 223.017 50.1826 223.025 49.9926 223.025C49.6359 223.025 49.3592 222.977 49.1626 222.88C48.9659 222.783 48.8276 222.64 48.7476 222.45C48.6709 222.26 48.6326 222.027 48.6326 221.75V218.505H47.7926V217.83H48.6576L48.8826 216.325H49.5626V217.825H50.7276V218.505ZM53.4567 223.1C53.1234 223.1 52.8284 223.042 52.5717 222.925C52.3151 222.805 52.1134 222.633 51.9667 222.41C51.8234 222.187 51.7517 221.917 51.7517 221.6C51.7517 221.027 51.9517 220.6 52.3517 220.32C52.7517 220.04 53.3934 219.89 54.2767 219.87L55.2017 219.845V219.44C55.2017 219.123 55.1067 218.873 54.9167 218.69C54.7267 218.503 54.4317 218.41 54.0317 218.41C53.7351 218.413 53.4734 218.483 53.2467 218.62C53.0234 218.757 52.8784 218.98 52.8117 219.29H51.9967C52.0167 218.953 52.1117 218.67 52.2817 218.44C52.4517 218.207 52.6884 218.03 52.9917 217.91C53.2984 217.79 53.6601 217.73 54.0767 217.73C54.5267 217.73 54.9001 217.793 55.1967 217.92C55.4967 218.047 55.7201 218.233 55.8667 218.48C56.0167 218.727 56.0917 219.03 56.0917 219.39V223H55.3017L55.2367 222.03C55.0367 222.433 54.7817 222.713 54.4717 222.87C54.1651 223.023 53.8267 223.1 53.4567 223.1ZM53.7367 222.435C53.9101 222.435 54.0817 222.403 54.2517 222.34C54.4251 222.277 54.5834 222.192 54.7267 222.085C54.8701 221.975 54.9834 221.853 55.0667 221.72C55.1534 221.583 55.1984 221.443 55.2017 221.3V220.415L54.4317 220.43C54.0384 220.437 53.7084 220.477 53.4417 220.55C53.1784 220.623 52.9801 220.738 52.8467 220.895C52.7167 221.052 52.6517 221.257 52.6517 221.51C52.6517 221.8 52.7517 222.027 52.9517 222.19C53.1551 222.353 53.4167 222.435 53.7367 222.435ZM58.9763 223.065C58.6963 223.065 58.4696 223.027 58.2963 222.95C58.1263 222.873 57.9946 222.77 57.9013 222.64C57.8113 222.51 57.7496 222.362 57.7163 222.195C57.6863 222.025 57.6713 221.85 57.6713 221.67V215.57H58.5813V221.58C58.5813 221.84 58.6313 222.035 58.7313 222.165C58.8346 222.295 58.9779 222.367 59.1613 222.38L59.4413 222.385V222.985C59.3646 223.008 59.2846 223.027 59.2013 223.04C59.1179 223.057 59.0429 223.065 58.9763 223.065ZM64.3845 223.1C64.0511 223.1 63.7561 223.042 63.4995 222.925C63.2428 222.805 63.0411 222.633 62.8945 222.41C62.7511 222.187 62.6795 221.917 62.6795 221.6C62.6795 221.027 62.8795 220.6 63.2795 220.32C63.6795 220.04 64.3211 219.89 65.2045 219.87L66.1295 219.845V219.44C66.1295 219.123 66.0345 218.873 65.8445 218.69C65.6545 218.503 65.3595 218.41 64.9595 218.41C64.6628 218.413 64.4011 218.483 64.1745 218.62C63.9511 218.757 63.8061 218.98 63.7395 219.29H62.9245C62.9445 218.953 63.0395 218.67 63.2095 218.44C63.3795 218.207 63.6161 218.03 63.9195 217.91C64.2261 217.79 64.5878 217.73 65.0045 217.73C65.4545 217.73 65.8278 217.793 66.1245 217.92C66.4245 218.047 66.6478 218.233 66.7945 218.48C66.9445 218.727 67.0195 219.03 67.0195 219.39V223H66.2295L66.1645 222.03C65.9645 222.433 65.7095 222.713 65.3995 222.87C65.0928 223.023 64.7545 223.1 64.3845 223.1ZM64.6645 222.435C64.8378 222.435 65.0095 222.403 65.1795 222.34C65.3528 222.277 65.5111 222.192 65.6545 222.085C65.7978 221.975 65.9111 221.853 65.9945 221.72C66.0811 221.583 66.1261 221.443 66.1295 221.3V220.415L65.3595 220.43C64.9661 220.437 64.6361 220.477 64.3695 220.55C64.1061 220.623 63.9078 220.738 63.7745 220.895C63.6445 221.052 63.5795 221.257 63.5795 221.51C63.5795 221.8 63.6795 222.027 63.8795 222.19C64.0828 222.353 64.3445 222.435 64.6645 222.435ZM68.599 223V217.83H69.489V218.58C69.6323 218.353 69.829 218.155 70.079 217.985C70.329 217.815 70.654 217.73 71.054 217.73C71.2407 217.73 71.4307 217.762 71.624 217.825C71.8207 217.888 72.0007 217.983 72.164 218.11C72.3273 218.237 72.454 218.392 72.544 218.575C72.704 218.322 72.9207 218.118 73.194 217.965C73.4673 217.808 73.7757 217.73 74.119 217.73C74.299 217.73 74.4873 217.758 74.684 217.815C74.8807 217.868 75.0623 217.965 75.229 218.105C75.399 218.242 75.5373 218.433 75.644 218.68C75.7507 218.923 75.804 219.237 75.804 219.62V223H74.874V219.71C74.874 219.397 74.824 219.155 74.724 218.985C74.624 218.812 74.4923 218.69 74.329 218.62C74.169 218.55 73.9973 218.515 73.814 218.515C73.654 218.515 73.484 218.547 73.304 218.61C73.124 218.673 72.9707 218.78 72.844 218.93C72.7173 219.08 72.654 219.285 72.654 219.545V223H71.734V219.44C71.734 219.237 71.679 219.067 71.569 218.93C71.4623 218.793 71.3273 218.69 71.164 218.62C71.004 218.55 70.844 218.515 70.684 218.515C70.5073 218.515 70.329 218.55 70.149 218.62C69.9723 218.69 69.8223 218.802 69.699 218.955C69.579 219.105 69.519 219.302 69.519 219.545V223H68.599ZM79.3063 223.1C78.8297 223.1 78.413 222.998 78.0563 222.795C77.6997 222.588 77.423 222.287 77.2263 221.89C77.0297 221.493 76.9313 221.008 76.9313 220.435C76.9313 219.895 77.023 219.422 77.2063 219.015C77.3897 218.608 77.658 218.293 78.0113 218.07C78.368 217.843 78.7997 217.73 79.3063 217.73C79.783 217.73 80.1963 217.835 80.5463 218.045C80.8997 218.252 81.173 218.557 81.3663 218.96C81.5597 219.363 81.6563 219.855 81.6563 220.435C81.6563 220.962 81.5663 221.425 81.3863 221.825C81.2097 222.225 80.9463 222.538 80.5963 222.765C80.2497 222.988 79.8197 223.1 79.3063 223.1ZM79.3063 222.37C79.6163 222.37 79.878 222.292 80.0913 222.135C80.3047 221.978 80.4663 221.753 80.5763 221.46C80.6863 221.167 80.7413 220.818 80.7413 220.415C80.7413 220.045 80.693 219.713 80.5963 219.42C80.4997 219.123 80.3447 218.888 80.1313 218.715C79.9213 218.542 79.6463 218.455 79.3063 218.455C78.993 218.455 78.728 218.533 78.5113 218.69C78.2947 218.843 78.1297 219.067 78.0163 219.36C77.9063 219.653 77.8513 220.005 77.8513 220.415C77.8513 220.778 77.9013 221.108 78.0013 221.405C78.1013 221.702 78.258 221.937 78.4713 222.11C78.6847 222.283 78.963 222.37 79.3063 222.37ZM84.6884 223.1C84.4184 223.097 84.1634 223.058 83.9234 222.985C83.6868 222.908 83.4768 222.797 83.2934 222.65C83.1101 222.503 82.9651 222.322 82.8584 222.105C82.7551 221.885 82.7034 221.63 82.7034 221.34V217.83H83.6284V221.245C83.6284 221.582 83.7318 221.855 83.9384 222.065C84.1484 222.275 84.4634 222.38 84.8834 222.38C85.2634 222.38 85.5684 222.282 85.7984 222.085C86.0318 221.885 86.1484 221.588 86.1484 221.195V217.83H87.0684V223H86.3334L86.2384 222.01C86.1751 222.27 86.0668 222.48 85.9134 222.64C85.7634 222.8 85.5818 222.918 85.3684 222.995C85.1584 223.068 84.9318 223.103 84.6884 223.1ZM88.5697 223V217.83H89.4647V218.58C89.548 218.437 89.663 218.302 89.8097 218.175C89.9597 218.048 90.1397 217.947 90.3497 217.87C90.563 217.793 90.808 217.755 91.0847 217.755C91.4114 217.755 91.7114 217.82 91.9847 217.95C92.2614 218.08 92.4814 218.283 92.6447 218.56C92.8114 218.833 92.8947 219.187 92.8947 219.62V223H91.9697V219.71C91.9697 219.307 91.863 219.008 91.6497 218.815C91.4397 218.618 91.1664 218.52 90.8297 218.52C90.5964 218.52 90.378 218.558 90.1747 218.635C89.9714 218.708 89.8064 218.822 89.6797 218.975C89.553 219.125 89.4897 219.315 89.4897 219.545V223H88.5697ZM96.7237 218.505H95.5587V221.72C95.5587 221.903 95.577 222.038 95.6137 222.125C95.6537 222.208 95.7187 222.262 95.8087 222.285C95.902 222.308 96.0287 222.32 96.1887 222.32H96.7537V222.94C96.6903 222.963 96.5937 222.983 96.4637 223C96.337 223.017 96.1787 223.025 95.9887 223.025C95.632 223.025 95.3553 222.977 95.1587 222.88C94.962 222.783 94.8237 222.64 94.7437 222.45C94.667 222.26 94.6287 222.027 94.6287 221.75V218.505H93.7887V217.83H94.6537L94.8787 216.325H95.5587V217.825H96.7237V218.505ZM102.095 223.1C101.425 223.1 100.893 222.87 100.5 222.41C100.107 221.95 99.9098 221.278 99.9098 220.395C99.9098 219.858 99.9882 219.39 100.145 218.99C100.305 218.59 100.542 218.28 100.855 218.06C101.168 217.84 101.558 217.73 102.025 217.73C102.272 217.73 102.49 217.762 102.68 217.825C102.873 217.888 103.04 217.968 103.18 218.065C103.32 218.162 103.433 218.262 103.52 218.365C103.61 218.468 103.677 218.563 103.72 218.65V215.57H104.65V223H103.945L103.845 221.94C103.812 222.04 103.758 222.157 103.685 222.29C103.612 222.42 103.508 222.548 103.375 222.675C103.242 222.798 103.07 222.9 102.86 222.98C102.653 223.06 102.398 223.1 102.095 223.1ZM102.26 222.39C102.783 222.39 103.157 222.232 103.38 221.915C103.607 221.595 103.72 221.073 103.72 220.35C103.717 219.947 103.665 219.603 103.565 219.32C103.468 219.037 103.315 218.822 103.105 218.675C102.898 218.525 102.623 218.45 102.28 218.45C101.853 218.45 101.507 218.602 101.24 218.905C100.973 219.208 100.84 219.69 100.84 220.35C100.84 220.997 100.96 221.498 101.2 221.855C101.443 222.212 101.797 222.39 102.26 222.39ZM106.837 220.63C106.837 220.957 106.89 221.253 106.997 221.52C107.107 221.783 107.272 221.993 107.492 222.15C107.715 222.307 107.994 222.385 108.327 222.385C108.657 222.385 108.94 222.308 109.177 222.155C109.417 222.002 109.57 221.78 109.637 221.49H110.512C110.449 221.84 110.309 222.135 110.092 222.375C109.875 222.615 109.614 222.797 109.307 222.92C109 223.04 108.68 223.1 108.347 223.1C107.864 223.1 107.439 222.995 107.072 222.785C106.705 222.575 106.419 222.273 106.212 221.88C106.005 221.487 105.902 221.015 105.902 220.465C105.902 219.922 105.995 219.445 106.182 219.035C106.369 218.625 106.639 218.305 106.992 218.075C107.349 217.845 107.777 217.73 108.277 217.73C108.764 217.73 109.175 217.835 109.512 218.045C109.849 218.255 110.104 218.552 110.277 218.935C110.454 219.315 110.542 219.767 110.542 220.29V220.63H106.837ZM106.842 220.005H109.652C109.652 219.708 109.602 219.442 109.502 219.205C109.402 218.965 109.249 218.777 109.042 218.64C108.839 218.5 108.582 218.43 108.272 218.43C107.949 218.43 107.68 218.508 107.467 218.665C107.257 218.818 107.099 219.017 106.992 219.26C106.889 219.5 106.839 219.748 106.842 220.005ZM113.677 223.1C113.007 223.1 112.475 222.87 112.082 222.41C111.689 221.95 111.492 221.278 111.492 220.395C111.492 219.858 111.57 219.39 111.727 218.99C111.887 218.59 112.124 218.28 112.437 218.06C112.75 217.84 113.14 217.73 113.607 217.73C113.854 217.73 114.072 217.762 114.262 217.825C114.455 217.888 114.622 217.968 114.762 218.065C114.902 218.162 115.015 218.262 115.102 218.365C115.192 218.468 115.259 218.563 115.302 218.65V215.57H116.232V223H115.527L115.427 221.94C115.394 222.04 115.34 222.157 115.267 222.29C115.194 222.42 115.09 222.548 114.957 222.675C114.824 222.798 114.652 222.9 114.442 222.98C114.235 223.06 113.98 223.1 113.677 223.1ZM113.842 222.39C114.365 222.39 114.739 222.232 114.962 221.915C115.189 221.595 115.302 221.073 115.302 220.35C115.299 219.947 115.247 219.603 115.147 219.32C115.05 219.037 114.897 218.822 114.687 218.675C114.48 218.525 114.205 218.45 113.862 218.45C113.435 218.45 113.089 218.602 112.822 218.905C112.555 219.208 112.422 219.69 112.422 220.35C112.422 220.997 112.542 221.498 112.782 221.855C113.025 222.212 113.379 222.39 113.842 222.39ZM119.659 223.1C119.389 223.097 119.134 223.058 118.894 222.985C118.657 222.908 118.447 222.797 118.264 222.65C118.081 222.503 117.936 222.322 117.829 222.105C117.726 221.885 117.674 221.63 117.674 221.34V217.83H118.599V221.245C118.599 221.582 118.702 221.855 118.909 222.065C119.119 222.275 119.434 222.38 119.854 222.38C120.234 222.38 120.539 222.282 120.769 222.085C121.002 221.885 121.119 221.588 121.119 221.195V217.83H122.039V223H121.304L121.209 222.01C121.146 222.27 121.037 222.48 120.884 222.64C120.734 222.8 120.552 222.918 120.339 222.995C120.129 223.068 119.902 223.103 119.659 223.1ZM125.542 217.73C125.912 217.73 126.245 217.802 126.542 217.945C126.838 218.085 127.08 218.285 127.267 218.545C127.457 218.805 127.575 219.112 127.622 219.465H126.802C126.772 219.285 126.702 219.12 126.592 218.97C126.485 218.82 126.343 218.7 126.167 218.61C125.99 218.52 125.783 218.475 125.547 218.475C125.103 218.475 124.743 218.635 124.467 218.955C124.19 219.275 124.052 219.765 124.052 220.425C124.052 221.022 124.178 221.5 124.432 221.86C124.688 222.217 125.065 222.395 125.562 222.395C125.798 222.395 126.003 222.35 126.177 222.26C126.353 222.167 126.495 222.045 126.602 221.895C126.708 221.742 126.777 221.578 126.807 221.405H127.612C127.568 221.752 127.452 222.052 127.262 222.305C127.072 222.558 126.828 222.755 126.532 222.895C126.238 223.032 125.908 223.1 125.542 223.1C125.078 223.1 124.667 222.998 124.307 222.795C123.95 222.592 123.67 222.292 123.467 221.895C123.263 221.498 123.162 221.012 123.162 220.435C123.162 219.895 123.253 219.423 123.437 219.02C123.623 218.613 123.893 218.297 124.247 218.07C124.603 217.843 125.035 217.73 125.542 217.73ZM131.333 218.505H130.168V221.72C130.168 221.903 130.186 222.038 130.223 222.125C130.263 222.208 130.328 222.262 130.418 222.285C130.511 222.308 130.638 222.32 130.798 222.32H131.363V222.94C131.3 222.963 131.203 222.983 131.073 223C130.946 223.017 130.788 223.025 130.598 223.025C130.241 223.025 129.965 222.977 129.768 222.88C129.571 222.783 129.433 222.64 129.353 222.45C129.276 222.26 129.238 222.027 129.238 221.75V218.505H128.398V217.83H129.263L129.488 216.325H130.168V217.825H131.333V218.505ZM133.185 220.63C133.185 220.957 133.238 221.253 133.345 221.52C133.455 221.783 133.62 221.993 133.84 222.15C134.063 222.307 134.341 222.385 134.675 222.385C135.005 222.385 135.288 222.308 135.525 222.155C135.765 222.002 135.918 221.78 135.985 221.49H136.86C136.796 221.84 136.656 222.135 136.44 222.375C136.223 222.615 135.961 222.797 135.655 222.92C135.348 223.04 135.028 223.1 134.695 223.1C134.211 223.1 133.786 222.995 133.42 222.785C133.053 222.575 132.766 222.273 132.56 221.88C132.353 221.487 132.25 221.015 132.25 220.465C132.25 219.922 132.343 219.445 132.53 219.035C132.716 218.625 132.986 218.305 133.34 218.075C133.696 217.845 134.125 217.73 134.625 217.73C135.111 217.73 135.523 217.835 135.86 218.045C136.196 218.255 136.451 218.552 136.625 218.935C136.801 219.315 136.89 219.767 136.89 220.29V220.63H133.185ZM133.19 220.005H136C136 219.708 135.95 219.442 135.85 219.205C135.75 218.965 135.596 218.777 135.39 218.64C135.186 218.5 134.93 218.43 134.62 218.43C134.296 218.43 134.028 218.508 133.815 218.665C133.605 218.818 133.446 219.017 133.34 219.26C133.236 219.5 133.186 219.748 133.19 220.005ZM140.025 223.1C139.355 223.1 138.823 222.87 138.43 222.41C138.036 221.95 137.84 221.278 137.84 220.395C137.84 219.858 137.918 219.39 138.075 218.99C138.235 218.59 138.471 218.28 138.785 218.06C139.098 217.84 139.488 217.73 139.955 217.73C140.201 217.73 140.42 217.762 140.61 217.825C140.803 217.888 140.97 217.968 141.11 218.065C141.25 218.162 141.363 218.262 141.45 218.365C141.54 218.468 141.606 218.563 141.65 218.65V215.57H142.58V223H141.875L141.775 221.94C141.741 222.04 141.688 222.157 141.615 222.29C141.541 222.42 141.438 222.548 141.305 222.675C141.171 222.798 141 222.9 140.79 222.98C140.583 223.06 140.328 223.1 140.025 223.1ZM140.19 222.39C140.713 222.39 141.086 222.232 141.31 221.915C141.536 221.595 141.65 221.073 141.65 220.35C141.646 219.947 141.595 219.603 141.495 219.32C141.398 219.037 141.245 218.822 141.035 218.675C140.828 218.525 140.553 218.45 140.21 218.45C139.783 218.45 139.436 218.602 139.17 218.905C138.903 219.208 138.77 219.69 138.77 220.35C138.77 220.997 138.89 221.498 139.13 221.855C139.373 222.212 139.726 222.39 140.19 222.39ZM149.331 217.83V218.505H148.076V223H147.146V218.505H146.056V217.83H147.146V217.03C147.146 216.62 147.251 216.308 147.461 216.095C147.671 215.878 147.985 215.77 148.401 215.77H149.376L149.381 216.425H148.606C148.396 216.425 148.253 216.482 148.176 216.595C148.1 216.708 148.061 216.88 148.061 217.11V217.83H149.331ZM150.474 223V217.83H151.354V218.825C151.441 218.578 151.562 218.375 151.719 218.215C151.876 218.052 152.054 217.93 152.254 217.85C152.457 217.77 152.667 217.73 152.884 217.73C152.961 217.73 153.036 217.735 153.109 217.745C153.182 217.755 153.239 217.772 153.279 217.795V218.69C153.229 218.667 153.164 218.652 153.084 218.645C153.007 218.635 152.942 218.63 152.889 218.63C152.682 218.617 152.489 218.63 152.309 218.67C152.129 218.707 151.971 218.772 151.834 218.865C151.697 218.958 151.589 219.082 151.509 219.235C151.432 219.385 151.394 219.568 151.394 219.785V223H150.474ZM156.299 223.1C155.822 223.1 155.405 222.998 155.049 222.795C154.692 222.588 154.415 222.287 154.219 221.89C154.022 221.493 153.924 221.008 153.924 220.435C153.924 219.895 154.015 219.422 154.199 219.015C154.382 218.608 154.65 218.293 155.004 218.07C155.36 217.843 155.792 217.73 156.299 217.73C156.775 217.73 157.189 217.835 157.539 218.045C157.892 218.252 158.165 218.557 158.359 218.96C158.552 219.363 158.649 219.855 158.649 220.435C158.649 220.962 158.559 221.425 158.379 221.825C158.202 222.225 157.939 222.538 157.589 222.765C157.242 222.988 156.812 223.1 156.299 223.1ZM156.299 222.37C156.609 222.37 156.87 222.292 157.084 222.135C157.297 221.978 157.459 221.753 157.569 221.46C157.679 221.167 157.734 220.818 157.734 220.415C157.734 220.045 157.685 219.713 157.589 219.42C157.492 219.123 157.337 218.888 157.124 218.715C156.914 218.542 156.639 218.455 156.299 218.455C155.985 218.455 155.72 218.533 155.504 218.69C155.287 218.843 155.122 219.067 155.009 219.36C154.899 219.653 154.844 220.005 154.844 220.415C154.844 220.778 154.894 221.108 154.994 221.405C155.094 221.702 155.25 221.937 155.464 222.11C155.677 222.283 155.955 222.37 156.299 222.37ZM159.859 223V217.83H160.749V218.58C160.892 218.353 161.089 218.155 161.339 217.985C161.589 217.815 161.914 217.73 162.314 217.73C162.5 217.73 162.69 217.762 162.884 217.825C163.08 217.888 163.26 217.983 163.424 218.11C163.587 218.237 163.714 218.392 163.804 218.575C163.964 218.322 164.18 218.118 164.454 217.965C164.727 217.808 165.035 217.73 165.379 217.73C165.559 217.73 165.747 217.758 165.944 217.815C166.14 217.868 166.322 217.965 166.489 218.105C166.659 218.242 166.797 218.433 166.904 218.68C167.01 218.923 167.064 219.237 167.064 219.62V223H166.134V219.71C166.134 219.397 166.084 219.155 165.984 218.985C165.884 218.812 165.752 218.69 165.589 218.62C165.429 218.55 165.257 218.515 165.074 218.515C164.914 218.515 164.744 218.547 164.564 218.61C164.384 218.673 164.23 218.78 164.104 218.93C163.977 219.08 163.914 219.285 163.914 219.545V223H162.994V219.44C162.994 219.237 162.939 219.067 162.829 218.93C162.722 218.793 162.587 218.69 162.424 218.62C162.264 218.55 162.104 218.515 161.944 218.515C161.767 218.515 161.589 218.55 161.409 218.62C161.232 218.69 161.082 218.802 160.959 218.955C160.839 219.105 160.779 219.302 160.779 219.545V223H159.859ZM171.267 224.65C170.964 224.65 170.756 224.628 170.642 224.585C170.529 224.542 170.472 224.52 170.472 224.52V223.92L170.997 223.93C171.191 223.937 171.351 223.923 171.477 223.89C171.604 223.857 171.706 223.812 171.782 223.755C171.859 223.698 171.917 223.635 171.957 223.565C172.001 223.495 172.036 223.428 172.062 223.365L172.242 222.875L170.222 217.83H171.157L172.682 221.82L174.197 217.83H175.102L172.922 223.39C172.789 223.717 172.639 223.972 172.472 224.155C172.309 224.338 172.126 224.467 171.922 224.54C171.722 224.613 171.504 224.65 171.267 224.65ZM177.959 223.1C177.482 223.1 177.065 222.998 176.709 222.795C176.352 222.588 176.075 222.287 175.879 221.89C175.682 221.493 175.584 221.008 175.584 220.435C175.584 219.895 175.675 219.422 175.859 219.015C176.042 218.608 176.31 218.293 176.664 218.07C177.02 217.843 177.452 217.73 177.959 217.73C178.435 217.73 178.849 217.835 179.199 218.045C179.552 218.252 179.825 218.557 180.019 218.96C180.212 219.363 180.309 219.855 180.309 220.435C180.309 220.962 180.219 221.425 180.039 221.825C179.862 222.225 179.599 222.538 179.249 222.765C178.902 222.988 178.472 223.1 177.959 223.1ZM177.959 222.37C178.269 222.37 178.53 222.292 178.744 222.135C178.957 221.978 179.119 221.753 179.229 221.46C179.339 221.167 179.394 220.818 179.394 220.415C179.394 220.045 179.345 219.713 179.249 219.42C179.152 219.123 178.997 218.888 178.784 218.715C178.574 218.542 178.299 218.455 177.959 218.455C177.645 218.455 177.38 218.533 177.164 218.69C176.947 218.843 176.782 219.067 176.669 219.36C176.559 219.653 176.504 220.005 176.504 220.415C176.504 220.778 176.554 221.108 176.654 221.405C176.754 221.702 176.91 221.937 177.124 222.11C177.337 222.283 177.615 222.37 177.959 222.37ZM183.341 223.1C183.071 223.097 182.816 223.058 182.576 222.985C182.339 222.908 182.129 222.797 181.946 222.65C181.762 222.503 181.617 222.322 181.511 222.105C181.407 221.885 181.356 221.63 181.356 221.34V217.83H182.281V221.245C182.281 221.582 182.384 221.855 182.591 222.065C182.801 222.275 183.116 222.38 183.536 222.38C183.916 222.38 184.221 222.282 184.451 222.085C184.684 221.885 184.801 221.588 184.801 221.195V217.83H185.721V223H184.986L184.891 222.01C184.827 222.27 184.719 222.48 184.566 222.64C184.416 222.8 184.234 222.918 184.021 222.995C183.811 223.068 183.584 223.103 183.341 223.1ZM187.222 223V217.83H188.102V218.825C188.189 218.578 188.31 218.375 188.467 218.215C188.624 218.052 188.802 217.93 189.002 217.85C189.205 217.77 189.415 217.73 189.632 217.73C189.709 217.73 189.784 217.735 189.857 217.745C189.93 217.755 189.987 217.772 190.027 217.795V218.69C189.977 218.667 189.912 218.652 189.832 218.645C189.755 218.635 189.69 218.63 189.637 218.63C189.43 218.617 189.237 218.63 189.057 218.67C188.877 218.707 188.719 218.772 188.582 218.865C188.445 218.958 188.337 219.082 188.257 219.235C188.18 219.385 188.142 219.568 188.142 219.785V223H187.222ZM40.195 237.1C39.8617 237.1 39.5667 237.042 39.31 236.925C39.0533 236.805 38.8517 236.633 38.705 236.41C38.5617 236.187 38.49 235.917 38.49 235.6C38.49 235.027 38.69 234.6 39.09 234.32C39.49 234.04 40.1317 233.89 41.015 233.87L41.94 233.845V233.44C41.94 233.123 41.845 232.873 41.655 232.69C41.465 232.503 41.17 232.41 40.77 232.41C40.4733 232.413 40.2117 232.483 39.985 232.62C39.7617 232.757 39.6167 232.98 39.55 233.29H38.735C38.755 232.953 38.85 232.67 39.02 232.44C39.19 232.207 39.4267 232.03 39.73 231.91C40.0367 231.79 40.3983 231.73 40.815 231.73C41.265 231.73 41.6383 231.793 41.935 231.92C42.235 232.047 42.4583 232.233 42.605 232.48C42.755 232.727 42.83 233.03 42.83 233.39V237H42.04L41.975 236.03C41.775 236.433 41.52 236.713 41.21 236.87C40.9033 237.023 40.565 237.1 40.195 237.1ZM40.475 236.435C40.6483 236.435 40.82 236.403 40.99 236.34C41.1633 236.277 41.3217 236.192 41.465 236.085C41.6083 235.975 41.7217 235.853 41.805 235.72C41.8917 235.583 41.9367 235.443 41.94 235.3V234.415L41.17 234.43C40.7767 234.437 40.4467 234.477 40.18 234.55C39.9167 234.623 39.7183 234.738 39.585 234.895C39.455 235.052 39.39 235.257 39.39 235.51C39.39 235.8 39.49 236.027 39.69 236.19C39.8933 236.353 40.155 236.435 40.475 236.435ZM46.4695 231.73C46.8395 231.73 47.1729 231.802 47.4695 231.945C47.7662 232.085 48.0079 232.285 48.1945 232.545C48.3845 232.805 48.5029 233.112 48.5495 233.465H47.7295C47.6995 233.285 47.6295 233.12 47.5195 232.97C47.4129 232.82 47.2712 232.7 47.0945 232.61C46.9179 232.52 46.7112 232.475 46.4745 232.475C46.0312 232.475 45.6712 232.635 45.3945 232.955C45.1179 233.275 44.9795 233.765 44.9795 234.425C44.9795 235.022 45.1062 235.5 45.3595 235.86C45.6162 236.217 45.9929 236.395 46.4895 236.395C46.7262 236.395 46.9312 236.35 47.1045 236.26C47.2812 236.167 47.4229 236.045 47.5295 235.895C47.6362 235.742 47.7045 235.578 47.7345 235.405H48.5395C48.4962 235.752 48.3795 236.052 48.1895 236.305C47.9995 236.558 47.7562 236.755 47.4595 236.895C47.1662 237.032 46.8362 237.1 46.4695 237.1C46.0062 237.1 45.5945 236.998 45.2345 236.795C44.8779 236.592 44.5979 236.292 44.3945 235.895C44.1912 235.498 44.0895 235.012 44.0895 234.435C44.0895 233.895 44.1812 233.423 44.3645 233.02C44.5512 232.613 44.8212 232.297 45.1745 232.07C45.5312 231.843 45.9629 231.73 46.4695 231.73ZM51.8602 231.73C52.2302 231.73 52.5635 231.802 52.8602 231.945C53.1568 232.085 53.3985 232.285 53.5852 232.545C53.7752 232.805 53.8935 233.112 53.9402 233.465H53.1202C53.0902 233.285 53.0202 233.12 52.9102 232.97C52.8035 232.82 52.6618 232.7 52.4852 232.61C52.3085 232.52 52.1018 232.475 51.8652 232.475C51.4218 232.475 51.0618 232.635 50.7852 232.955C50.5085 233.275 50.3702 233.765 50.3702 234.425C50.3702 235.022 50.4968 235.5 50.7502 235.86C51.0068 236.217 51.3835 236.395 51.8802 236.395C52.1168 236.395 52.3218 236.35 52.4952 236.26C52.6718 236.167 52.8135 236.045 52.9202 235.895C53.0268 235.742 53.0952 235.578 53.1252 235.405H53.9302C53.8868 235.752 53.7702 236.052 53.5802 236.305C53.3902 236.558 53.1468 236.755 52.8502 236.895C52.5568 237.032 52.2268 237.1 51.8602 237.1C51.3968 237.1 50.9852 236.998 50.6252 236.795C50.2685 236.592 49.9885 236.292 49.7852 235.895C49.5818 235.498 49.4802 235.012 49.4802 234.435C49.4802 233.895 49.5718 233.423 49.7552 233.02C49.9418 232.613 50.2118 232.297 50.5652 232.07C50.9218 231.843 51.3535 231.73 51.8602 231.73ZM57.2458 237.1C56.7691 237.1 56.3524 236.998 55.9958 236.795C55.6391 236.588 55.3624 236.287 55.1658 235.89C54.9691 235.493 54.8708 235.008 54.8708 234.435C54.8708 233.895 54.9624 233.422 55.1458 233.015C55.3291 232.608 55.5974 232.293 55.9508 232.07C56.3074 231.843 56.7391 231.73 57.2458 231.73C57.7224 231.73 58.1358 231.835 58.4858 232.045C58.8391 232.252 59.1124 232.557 59.3058 232.96C59.4991 233.363 59.5958 233.855 59.5958 234.435C59.5958 234.962 59.5058 235.425 59.3258 235.825C59.1491 236.225 58.8858 236.538 58.5358 236.765C58.1891 236.988 57.7591 237.1 57.2458 237.1ZM57.2458 236.37C57.5558 236.37 57.8174 236.292 58.0308 236.135C58.2441 235.978 58.4058 235.753 58.5158 235.46C58.6258 235.167 58.6808 234.818 58.6808 234.415C58.6808 234.045 58.6324 233.713 58.5358 233.42C58.4391 233.123 58.2841 232.888 58.0708 232.715C57.8608 232.542 57.5858 232.455 57.2458 232.455C56.9324 232.455 56.6674 232.533 56.4508 232.69C56.2341 232.843 56.0691 233.067 55.9558 233.36C55.8458 233.653 55.7908 234.005 55.7908 234.415C55.7908 234.778 55.8408 235.108 55.9408 235.405C56.0408 235.702 56.1974 235.937 56.4108 236.11C56.6241 236.283 56.9024 236.37 57.2458 236.37ZM62.6279 237.1C62.3579 237.097 62.1029 237.058 61.8629 236.985C61.6262 236.908 61.4162 236.797 61.2329 236.65C61.0496 236.503 60.9046 236.322 60.7979 236.105C60.6946 235.885 60.6429 235.63 60.6429 235.34V231.83H61.5679V235.245C61.5679 235.582 61.6712 235.855 61.8779 236.065C62.0879 236.275 62.4029 236.38 62.8229 236.38C63.2029 236.38 63.5079 236.282 63.7379 236.085C63.9712 235.885 64.0879 235.588 64.0879 235.195V231.83H65.0079V237H64.2729L64.1779 236.01C64.1146 236.27 64.0062 236.48 63.8529 236.64C63.7029 236.8 63.5212 236.918 63.3079 236.995C63.0979 237.068 62.8712 237.103 62.6279 237.1ZM66.5091 237V231.83H67.4041V232.58C67.4875 232.437 67.6025 232.302 67.7491 232.175C67.8991 232.048 68.0791 231.947 68.2891 231.87C68.5025 231.793 68.7475 231.755 69.0241 231.755C69.3508 231.755 69.6508 231.82 69.9241 231.95C70.2008 232.08 70.4208 232.283 70.5841 232.56C70.7508 232.833 70.8341 233.187 70.8341 233.62V237H69.9091V233.71C69.9091 233.307 69.8025 233.008 69.5891 232.815C69.3791 232.618 69.1058 232.52 68.7691 232.52C68.5358 232.52 68.3175 232.558 68.1141 232.635C67.9108 232.708 67.7458 232.822 67.6191 232.975C67.4925 233.125 67.4291 233.315 67.4291 233.545V237H66.5091ZM74.6631 232.505H73.4981V235.72C73.4981 235.903 73.5165 236.038 73.5531 236.125C73.5931 236.208 73.6581 236.262 73.7481 236.285C73.8415 236.308 73.9681 236.32 74.1281 236.32H74.6931V236.94C74.6298 236.963 74.5331 236.983 74.4031 237C74.2765 237.017 74.1181 237.025 73.9281 237.025C73.5715 237.025 73.2948 236.977 73.0981 236.88C72.9015 236.783 72.7631 236.64 72.6831 236.45C72.6065 236.26 72.5681 236.027 72.5681 235.75V232.505H71.7281V231.83H72.5931L72.8181 230.325H73.4981V231.825H74.6631V232.505ZM79.2963 231.83V237H78.4013V231.83H79.2963ZM79.3163 229.775V230.735H78.3713V229.775H79.3163ZM82.7582 237.1C82.3982 237.1 82.0632 237.045 81.7532 236.935C81.4465 236.822 81.1915 236.647 80.9882 236.41C80.7849 236.17 80.6565 235.865 80.6032 235.495H81.4432C81.4899 235.698 81.5732 235.868 81.6932 236.005C81.8165 236.138 81.9699 236.24 82.1532 236.31C82.3365 236.377 82.5365 236.41 82.7532 236.41C83.0999 236.41 83.3799 236.345 83.5932 236.215C83.8065 236.085 83.9132 235.885 83.9132 235.615C83.9132 235.425 83.8565 235.273 83.7432 235.16C83.6332 235.043 83.4615 234.958 83.2282 234.905L82.1582 234.64C81.7415 234.54 81.4082 234.383 81.1582 234.17C80.9082 233.957 80.7832 233.658 80.7832 233.275C80.7799 232.972 80.8515 232.705 80.9982 232.475C81.1449 232.245 81.3649 232.063 81.6582 231.93C81.9515 231.797 82.3165 231.73 82.7532 231.73C83.3132 231.73 83.7649 231.857 84.1082 232.11C84.4549 232.36 84.6349 232.728 84.6482 233.215H83.8332C83.7999 232.968 83.6882 232.773 83.4982 232.63C83.3115 232.483 83.0599 232.41 82.7432 232.41C82.4132 232.41 82.1449 232.477 81.9382 232.61C81.7315 232.74 81.6282 232.943 81.6282 233.22C81.6282 233.403 81.7015 233.548 81.8482 233.655C81.9949 233.758 82.2115 233.845 82.4982 233.915L83.5332 234.175C83.7732 234.238 83.9699 234.322 84.1232 234.425C84.2799 234.528 84.4032 234.643 84.4932 234.77C84.5865 234.897 84.6515 235.03 84.6882 235.17C84.7282 235.307 84.7482 235.438 84.7482 235.565C84.7482 235.882 84.6682 236.155 84.5082 236.385C84.3515 236.612 84.1249 236.788 83.8282 236.915C83.5349 237.038 83.1782 237.1 82.7582 237.1ZM93.9895 234.245C93.9895 234.828 93.8945 235.335 93.7045 235.765C93.5145 236.192 93.2062 236.522 92.7795 236.755C92.3562 236.985 91.7945 237.1 91.0945 237.1C90.3912 237.1 89.8279 236.983 89.4045 236.75C88.9812 236.513 88.6745 236.178 88.4845 235.745C88.2979 235.312 88.2045 234.795 88.2045 234.195V229.77H89.6895V234.305C89.6895 234.845 89.8195 235.24 90.0795 235.49C90.3395 235.737 90.6779 235.86 91.0945 235.86C91.3712 235.86 91.6162 235.807 91.8295 235.7C92.0429 235.59 92.2095 235.422 92.3295 235.195C92.4529 234.965 92.5145 234.668 92.5145 234.305V229.77H93.9895V234.245ZM98.1559 237.1C97.7992 237.1 97.4492 237.055 97.1059 236.965C96.7625 236.875 96.4492 236.74 96.1659 236.56C95.8825 236.38 95.6475 236.155 95.4609 235.885C95.2775 235.615 95.1675 235.298 95.1309 234.935H96.6259C96.6759 235.155 96.7709 235.34 96.9109 235.49C97.0509 235.64 97.2275 235.755 97.4409 235.835C97.6542 235.915 97.8909 235.955 98.1509 235.955C98.4175 235.955 98.6609 235.922 98.8809 235.855C99.1009 235.788 99.2775 235.688 99.4109 235.555C99.5442 235.418 99.6109 235.248 99.6109 235.045C99.6109 234.862 99.5559 234.712 99.4459 234.595C99.3392 234.478 99.1942 234.383 99.0109 234.31C98.8275 234.237 98.6192 234.177 98.3859 234.13L97.1359 233.875C96.5892 233.772 96.1559 233.555 95.8359 233.225C95.5159 232.892 95.3509 232.448 95.3409 231.895C95.3375 231.442 95.4575 231.05 95.7009 230.72C95.9475 230.387 96.2809 230.13 96.7009 229.95C97.1242 229.77 97.5975 229.68 98.1209 229.68C98.7442 229.68 99.2675 229.778 99.6909 229.975C100.118 230.168 100.441 230.432 100.661 230.765C100.884 231.095 100.999 231.463 101.006 231.87H99.5409C99.5142 231.617 99.4375 231.415 99.3109 231.265C99.1842 231.115 99.0209 231.007 98.8209 230.94C98.6242 230.873 98.3992 230.84 98.1459 230.84C97.9525 230.84 97.7759 230.862 97.6159 230.905C97.4592 230.948 97.3259 231.01 97.2159 231.09C97.1059 231.167 97.0209 231.258 96.9609 231.365C96.9009 231.472 96.8709 231.592 96.8709 231.725C96.8709 231.935 96.9409 232.105 97.0809 232.235C97.2209 232.365 97.4825 232.472 97.8659 232.555L99.1059 232.81C99.5492 232.897 99.9009 233.025 100.161 233.195C100.424 233.365 100.621 233.557 100.751 233.77C100.884 233.983 100.971 234.202 101.011 234.425C101.054 234.645 101.076 234.848 101.076 235.035C101.076 235.425 100.953 235.777 100.706 236.09C100.463 236.4 100.123 236.647 99.6859 236.83C99.2492 237.01 98.7392 237.1 98.1559 237.1ZM107.219 237.1C106.352 237.1 105.649 236.927 105.109 236.58C104.569 236.23 104.259 235.692 104.179 234.965L105.699 234.935C105.779 235.265 105.95 235.517 106.214 235.69C106.48 235.86 106.814 235.945 107.214 235.945C107.454 235.945 107.665 235.907 107.849 235.83C108.035 235.75 108.182 235.643 108.289 235.51C108.395 235.373 108.449 235.218 108.449 235.045C108.449 234.778 108.364 234.58 108.194 234.45C108.024 234.317 107.762 234.21 107.409 234.13L106.224 233.875C105.674 233.765 105.232 233.547 104.899 233.22C104.569 232.89 104.4 232.448 104.394 231.895C104.39 231.442 104.512 231.05 104.759 230.72C105.009 230.387 105.347 230.13 105.774 229.95C106.204 229.77 106.685 229.68 107.219 229.68C107.765 229.68 108.237 229.778 108.634 229.975C109.034 230.168 109.34 230.43 109.554 230.76C109.77 231.087 109.875 231.448 109.869 231.845L108.394 231.87C108.347 231.55 108.24 231.298 108.074 231.115C107.907 230.932 107.63 230.84 107.244 230.84C107.044 230.84 106.865 230.862 106.709 230.905C106.552 230.948 106.417 231.01 106.304 231.09C106.19 231.167 106.104 231.258 106.044 231.365C105.987 231.472 105.959 231.592 105.959 231.725C105.959 231.935 106.029 232.102 106.169 232.225C106.312 232.345 106.58 232.457 106.974 232.56L108.139 232.845C108.795 233.002 109.269 233.27 109.559 233.65C109.852 234.03 109.999 234.492 109.999 235.035C109.999 235.452 109.884 235.815 109.654 236.125C109.427 236.435 109.105 236.675 108.689 236.845C108.272 237.015 107.782 237.1 107.219 237.1ZM106.594 228.735H107.859V230.035H106.594V228.735ZM106.569 236.655H107.829V237.955H106.569V236.655ZM112.21 237V231.585H110.92V230.76C111.334 230.76 111.667 230.722 111.92 230.645C112.177 230.565 112.369 230.452 112.495 230.305C112.622 230.155 112.697 229.977 112.72 229.77H113.69V237H112.21ZM117.998 229.67C118.858 229.67 119.536 229.992 120.033 230.635C120.529 231.275 120.778 232.197 120.778 233.4C120.778 234.597 120.533 235.515 120.043 236.155C119.553 236.792 118.871 237.11 117.998 237.11C117.121 237.11 116.436 236.792 115.943 236.155C115.453 235.518 115.208 234.602 115.208 233.405C115.208 232.605 115.321 231.927 115.548 231.37C115.774 230.813 116.096 230.392 116.513 230.105C116.929 229.815 117.424 229.67 117.998 229.67ZM117.998 235.915C118.428 235.915 118.743 235.723 118.943 235.34C119.143 234.953 119.243 234.308 119.243 233.405C119.243 232.482 119.141 231.82 118.938 231.42C118.734 231.02 118.419 230.82 117.993 230.82C117.566 230.82 117.248 231.022 117.038 231.425C116.831 231.828 116.728 232.488 116.728 233.405C116.728 234.305 116.831 234.948 117.038 235.335C117.244 235.722 117.564 235.915 117.998 235.915ZM124.899 229.77H126.334V234.175H127.449V235.4H126.334V237H124.929L124.934 235.4H121.604V234.2L124.899 229.77ZM122.954 234.175H124.934V231.525L122.954 234.175ZM128.231 237V235.41H129.831V237H128.231ZM133.527 237.11C133.077 237.11 132.657 237.023 132.267 236.85C131.877 236.677 131.558 236.433 131.312 236.12C131.065 235.803 130.927 235.433 130.897 235.01H132.287C132.347 235.29 132.48 235.518 132.687 235.695C132.893 235.868 133.153 235.955 133.467 235.955C133.813 235.955 134.117 235.873 134.377 235.71C134.64 235.547 134.837 235.287 134.967 234.93C135.1 234.573 135.147 234.107 135.107 233.53C135.013 233.707 134.883 233.862 134.717 233.995C134.553 234.125 134.362 234.227 134.142 234.3C133.922 234.37 133.677 234.405 133.407 234.405C132.917 234.405 132.482 234.313 132.102 234.13C131.725 233.943 131.428 233.68 131.212 233.34C130.998 232.997 130.892 232.59 130.892 232.12C130.892 231.647 131.005 231.225 131.232 230.855C131.458 230.485 131.775 230.195 132.182 229.985C132.588 229.775 133.065 229.67 133.612 229.67C134.225 229.67 134.753 229.817 135.197 230.11C135.643 230.4 135.985 230.813 136.222 231.35C136.462 231.883 136.582 232.512 136.582 233.235C136.582 234.098 136.458 234.818 136.212 235.395C135.968 235.968 135.618 236.398 135.162 236.685C134.705 236.968 134.16 237.11 133.527 237.11ZM133.657 233.245C133.86 233.245 134.057 233.2 134.247 233.11C134.44 233.017 134.598 232.9 134.722 232.76C134.845 232.62 134.907 232.475 134.907 232.325C134.91 232.002 134.858 231.725 134.752 231.495C134.648 231.262 134.502 231.083 134.312 230.96C134.125 230.837 133.907 230.775 133.657 230.775C133.427 230.775 133.222 230.828 133.042 230.935C132.862 231.042 132.72 231.192 132.617 231.385C132.513 231.578 132.462 231.802 132.462 232.055C132.462 232.432 132.572 232.725 132.792 232.935C133.012 233.142 133.3 233.245 133.657 233.245ZM140.224 229.67C141.084 229.67 141.762 229.992 142.259 230.635C142.756 231.275 143.004 232.197 143.004 233.4C143.004 234.597 142.759 235.515 142.269 236.155C141.779 236.792 141.097 237.11 140.224 237.11C139.347 237.11 138.662 236.792 138.169 236.155C137.679 235.518 137.434 234.602 137.434 233.405C137.434 232.605 137.547 231.927 137.774 231.37C138.001 230.813 138.322 230.392 138.739 230.105C139.156 229.815 139.651 229.67 140.224 229.67ZM140.224 235.915C140.654 235.915 140.969 235.723 141.169 235.34C141.369 234.953 141.469 234.308 141.469 233.405C141.469 232.482 141.367 231.82 141.164 231.42C140.961 231.02 140.646 230.82 140.219 230.82C139.792 230.82 139.474 231.022 139.264 231.425C139.057 231.828 138.954 232.488 138.954 233.405C138.954 234.305 139.057 234.948 139.264 235.335C139.471 235.722 139.791 235.915 140.224 235.915ZM143.989 237V235.82H145.089V237H143.989Z" fill="#36536B"/>
</g>
</g>
<defs>
<filter id="filter0_d_0_1" x="-52.4321" y="-54.4305" width="417.649" height="658.861" filterUnits="userSpaceOnUse" color-interpolation-filters="sRGB">
<feFlood flood-opacity="0" result="BackgroundImageFix"/>
<feColorMatrix in="SourceAlpha" type="matrix" values="0 0 0 0 0 0 0 0 0 0 0 0 0 0 0 0 0 0 127 0" result="hardAlpha"/>
<feOffset dx="25" dy="25"/>
<feGaussianBlur stdDeviation="40"/>
<feColorMatrix type="matrix" values="0 0 0 0 0.212302 0 0 0 0 0.32521 0 0 0 0 0.419299 0 0 0 0.300727 0"/>
<feBlend mode="normal" in2="BackgroundImageFix" result="effect1_dropShadow_0_1"/>
<feBlend mode="normal" in="SourceGraphic" in2="effect1_dropShadow_0_1" result="shape"/>
</filter>
<filter id="filter1_d_0_1" x="17" y="162" width="248" height="117" filterUnits="userSpaceOnUse" color-interpolation-filters="sRGB">
<feFlood flood-opacity="0" result="BackgroundImageFix"/>
<feColorMatrix in="SourceAlpha" type="matrix" values="0 0 0 0 0 0 0 0 0 0 0 0 0 0 0 0 0 0 127 0" result="hardAlpha"/>
<feMorphology radius="10" operator="erode" in="SourceAlpha" result="effect1_dropShadow_0_1"/>
<feOffset dx="10" dy="10"/>
<feGaussianBlur stdDeviation="12.5"/>
<feColorMatrix type="matrix" values="0 0 0 0 0.212302 0 0 0 0 0.32521 0 0 0 0 0.419299 0 0 0 0.25 0"/>
<feBlend mode="normal" in2="BackgroundImageFix" result="effect1_dropShadow_0_1"/>
<feBlend mode="normal" in="SourceGraphic" in2="effect1_dropShadow_0_1" result="shape"/>
</filter>
<linearGradient id="paint0_linear_0_1" x1="10.0146" y1="0" x2="10.0146" y2="12.3239" gradientUnits="userSpaceOnUse">
<stop stop-color="#454545"/>
<stop offset="0.226279" stop-color="#999999"/>
<stop offset="1" stop-color="white"/>
</linearGradient>
<linearGradient id="paint1_linear_0_1" x1="260.103" y1="85.7474" x2="250.642" y2="85.7474" gradientUnits="userSpaceOnUse">
<stop stop-color="white" stop-opacity="0.01"/>
<stop offset="0.222178" stop-color="#BABABA"/>
<stop offset="0.54678" stop-color="white" stop-opacity="0.01"/>
<stop offset="1" stop-color="white" stop-opacity="0.01"/>
</linearGradient>
<linearGradient id="paint2_linear_0_1" x1="2.56798" y1="85.4868" x2="12.044" y2="85.4868" gradientUnits="userSpaceOnUse">
<stop stop-color="white" stop-opacity="0.01"/>
<stop offset="0.222178" stop-color="#BABABA"/>
<stop offset="0.54678" stop-color="white" stop-opacity="0.01"/>
<stop offset="1" stop-color="white" stop-opacity="0.01"/>
</linearGradient>
<linearGradient id="paint3_linear_0_1" x1="15.907" y1="12.4445" x2="15.907" y2="473.824" gradientUnits="userSpaceOnUse">
<stop stop-color="#9CB6CD"/>
<stop offset="0.420564" stop-color="#9AB3CA"/>
<stop offset="0.716592" stop-color="#557496"/>
<stop offset="1" stop-color="#475178"/>
</linearGradient>
<clipPath id="clip0_0_1">
<rect width="1440" height="3066" fill="white" transform="translate(-917 -162)"/>
</clipPath>
<clipPath id="clip1_0_1">
<rect width="233" height="465" fill="white" transform="translate(15.0742 12.4445)"/>
</clipPath>
<clipPath id="clip2_0_1">
<rect width="218" height="87" fill="white" transform="translate(22 167)"/>
</clipPath>
<clipPath id="clip3_0_1">
<rect width="187" height="11" fill="white" transform="translate(38 183)"/>
</clipPath>
</defs>
</svg>
